<svg width="24" height="25" viewBox="0 0 24 25" fill="none" xmlns="http://www.w3.org/2000/svg">
<path d="M6.75 3.61523V5.86523M17.25 3.61523V5.86523M3 19.3652V8.11523C3 7.5185 3.23705 6.9462 3.65901 6.52424C4.08097 6.10229 4.65326 5.86523 5.25 5.86523H18.75C19.3467 5.86523 19.919 6.10229 20.341 6.52424C20.7629 6.9462 21 7.5185 21 8.11523V19.3652M3 19.3652C3 19.962 3.23705 20.5343 3.65901 20.9562C4.08097 21.3782 4.65326 21.6152 5.25 21.6152H18.75C19.3467 21.6152 19.919 21.3782 20.341 20.9562C20.7629 20.5343 21 19.962 21 19.3652M3 19.3652V11.8652C3 11.2685 3.23705 10.6962 3.65901 10.2742C4.08097 9.85229 4.65326 9.61523 5.25 9.61523H18.75C19.3467 9.61523 19.919 9.85229 20.341 10.2742C20.7629 10.6962 21 11.2685 21 11.8652V19.3652" stroke="#E5005C" stroke-linecap="round" stroke-linejoin="round"/>
</svg>
