<svg width="25" height="25" viewBox="0 0 25 25" fill="none" xmlns="http://www.w3.org/2000/svg">
<path d="M20.75 7.89966L20.125 18.5317C20.0913 19.1047 19.8399 19.6432 19.4222 20.037C19.0045 20.4307 18.452 20.6499 17.878 20.6497H7.122C6.54796 20.6499 5.99555 20.4307 5.57783 20.037C5.16011 19.6432 4.90868 19.1047 4.875 18.5317L4.25 7.89966M10.5 11.6497H14.5M3.875 7.89966H21.125C21.746 7.89966 22.25 7.39566 22.25 6.77466V5.27466C22.25 4.65366 21.746 4.14966 21.125 4.14966H3.875C3.254 4.14966 2.75 4.65366 2.75 5.27466V6.77466C2.75 7.39566 3.254 7.89966 3.875 7.89966Z" stroke="#E5005C" stroke-linecap="round" stroke-linejoin="round"/>
</svg>
