<svg width="24" height="25" viewBox="0 0 24 25" fill="none" xmlns="http://www.w3.org/2000/svg">
<path d="M20.25 9.12624C21.134 9.41024 21.75 10.2542 21.75 11.2232V15.5092C21.75 16.6452 20.903 17.6092 19.77 17.7022C19.43 17.7292 19.09 17.7542 18.75 17.7742V20.8652L15.75 17.8652C14.396 17.8652 13.056 17.8102 11.73 17.7022C11.4413 17.6789 11.1605 17.5965 10.905 17.4602M20.25 9.12624C20.0955 9.0765 19.9358 9.04463 19.774 9.03124C17.0959 8.80892 14.4041 8.80892 11.726 9.03124C10.595 9.12524 9.75 10.0882 9.75 11.2232V15.5092C9.75 16.3462 10.21 17.0892 10.905 17.4602M20.25 9.12624V7.25224C20.25 5.63124 19.098 4.22624 17.49 4.01724C15.4208 3.74903 13.3365 3.61475 11.25 3.61524C9.135 3.61524 7.052 3.75224 5.01 4.01724C3.402 4.22624 2.25 5.63124 2.25 7.25224V13.4782C2.25 15.0992 3.402 16.5042 5.01 16.7132C5.587 16.7882 6.167 16.8532 6.75 16.9072V21.6152L10.905 17.4602" stroke="#E5005C" stroke-linecap="round" stroke-linejoin="round"/>
</svg>
