<svg width="25" height="25" viewBox="0 0 25 25" fill="none" xmlns="http://www.w3.org/2000/svg">
<path d="M2.75 21.3997H22.25M4.25 3.39966V21.3997M14.75 3.39966V21.3997M20.75 7.89966V21.3997M7.25 7.14966H8M7.25 10.1497H8M7.25 13.1497H8M11 7.14966H11.75M11 10.1497H11.75M11 13.1497H11.75M7.25 21.3997V18.0247C7.25 17.4037 7.754 16.8997 8.375 16.8997H10.625C11.246 16.8997 11.75 17.4037 11.75 18.0247V21.3997M3.5 3.39966H15.5M14.75 7.89966H21.5M17.75 11.6497H17.758V11.6577H17.75V11.6497ZM17.75 14.6497H17.758V14.6577H17.75V14.6497ZM17.75 17.6497H17.758V17.6577H17.75V17.6497Z" stroke="#E5005C" stroke-linecap="round" stroke-linejoin="round"/>
</svg>
