<svg width="24" height="25" viewBox="0 0 24 25" fill="none" xmlns="http://www.w3.org/2000/svg">
<path d="M3 5.05273H8.25C8.25863 5.05273 8.26748 5.05416 8.27539 5.05762C8.28328 5.06108 8.29005 5.06691 8.2959 5.07324L17.1289 14.6416L17.2773 14.8027H21C21.2155 14.8027 21.4218 14.8886 21.5742 15.041C21.7266 15.1934 21.8125 15.3997 21.8125 15.6152V19.3652C21.8125 19.5807 21.7266 19.7871 21.5742 19.9395C21.4218 20.0918 21.2155 20.1777 21 20.1777H15.75L15.7246 20.1729C15.7167 20.1694 15.7099 20.1636 15.7041 20.1572L6.87109 10.5889L6.72266 10.4277H3C2.78451 10.4277 2.57815 10.3418 2.42578 10.1895C2.27341 10.0371 2.1875 9.83072 2.1875 9.61523V5.86523C2.1875 5.64975 2.27341 5.44339 2.42578 5.29102C2.57815 5.13864 2.78451 5.05273 3 5.05273ZM3 5.17773C2.81766 5.17773 2.6426 5.24997 2.51367 5.37891C2.38474 5.50784 2.3125 5.6829 2.3125 5.86523V9.61523C2.3125 9.79757 2.38474 9.97263 2.51367 10.1016C2.6426 10.2305 2.81766 10.3027 3 10.3027H6.75C6.75863 10.3027 6.76748 10.3042 6.77539 10.3076C6.78328 10.3111 6.79005 10.3169 6.7959 10.3232L15.6289 19.8916L15.7773 20.0527H21C21.1823 20.0527 21.3574 19.9805 21.4863 19.8516C21.6153 19.7226 21.6875 19.5476 21.6875 19.3652V15.6152C21.6875 15.4784 21.6471 15.3456 21.5723 15.2334L21.4863 15.1289L21.3818 15.043C21.2697 14.9681 21.1368 14.9277 21 14.9277H17.25L17.2246 14.9229C17.2167 14.9194 17.2099 14.9136 17.2041 14.9072L8.37109 5.33887L8.22266 5.17773H3ZM18.75 5.05273C18.7666 5.05273 18.7822 5.05957 18.7939 5.07129C18.8057 5.08301 18.8125 5.09866 18.8125 5.11523V10.2129L19.666 9.36035L20.9434 8.08398C20.9552 8.07294 20.9711 8.06612 20.9873 8.06641C21.0034 8.06675 21.0189 8.07356 21.0303 8.08496C21.0417 8.09635 21.0485 8.11181 21.0488 8.12793C21.0491 8.14412 21.0423 8.16003 21.0312 8.17188L18.7939 10.4092C18.7822 10.4207 18.7665 10.4268 18.75 10.4268C18.7419 10.4268 18.7339 10.4258 18.7266 10.4229L18.7061 10.4092L16.4688 8.17188C16.4577 8.16003 16.4509 8.14412 16.4512 8.12793C16.4515 8.11182 16.4583 8.09636 16.4697 8.08496C16.4811 8.07356 16.4966 8.06675 16.5127 8.06641C16.5207 8.06626 16.5287 8.06847 16.5361 8.07129L16.5566 8.08398L17.834 9.36035L18.6875 10.2129V5.11523C18.6875 5.09866 18.6943 5.08301 18.7061 5.07129C18.712 5.06533 18.7189 5.06073 18.7266 5.05762L18.75 5.05273Z" fill="white" stroke="#E5005C"/>
</svg>
