<svg width="42" height="41" viewBox="0 0 42 41" fill="none" xmlns="http://www.w3.org/2000/svg">
<path d="M22.8807 20.3673L19.3206 24.9066L17.4399 22.5088C17.4057 22.4651 17.3619 22.4297 17.312 22.4053C17.262 22.381 17.2072 22.3684 17.1516 22.3684C17.0961 22.3684 17.0412 22.381 16.9913 22.4053C16.9414 22.4297 16.8976 22.4651 16.8634 22.5088L12.2966 28.3294C12.2544 28.3833 12.2282 28.4481 12.221 28.5162C12.2138 28.5844 12.2259 28.6532 12.256 28.7147C12.2861 28.7763 12.3329 28.8282 12.391 28.8644C12.4492 28.9007 12.5164 28.9198 12.5849 28.9196H29.4196C29.7262 28.9196 29.8955 28.5673 29.7079 28.3294L23.4618 20.3673C23.4271 20.3235 23.3829 20.2881 23.3326 20.2637C23.2823 20.2394 23.2271 20.2268 23.1712 20.2268C23.1153 20.2268 23.0602 20.2394 23.0098 20.2637C22.9595 20.2881 22.9154 20.3235 22.8807 20.3673ZM14.0446 17.2969C14.0446 17.7823 14.2374 18.2479 14.5807 18.5911C14.924 18.9344 15.3895 19.1272 15.875 19.1272C16.3604 19.1272 16.826 18.9344 17.1692 18.5911C17.5125 18.2479 17.7053 17.7823 17.7053 17.2969C17.7053 16.8114 17.5125 16.3459 17.1692 16.0026C16.826 15.6594 16.3604 15.4665 15.875 15.4665C15.3895 15.4665 14.924 15.6594 14.5807 16.0026C14.2374 16.3459 14.0446 16.8114 14.0446 17.2969ZM36.677 10.2775L26.8297 0.430134C26.5551 0.15558 26.1845 0 25.7955 0H6.35711C5.54717 0 4.89282 0.654353 4.89282 1.46429V39.5357C4.89282 40.3456 5.54717 41 6.35711 41H35.6428C36.4528 41 37.1071 40.3456 37.1071 39.5357V11.3162C37.1071 10.9272 36.9515 10.552 36.677 10.2775ZM34.7301 11.9888H25.1183V2.37701L34.7301 11.9888ZM34.8125 38.7054H7.18747V2.29464H23.0067V12.1786C23.0067 12.6883 23.2091 13.1771 23.5696 13.5375C23.93 13.898 24.4188 14.1004 24.9285 14.1004H34.8125V38.7054Z" fill="#707070"/>
</svg>
