<svg width="24" height="25" viewBox="0 0 24 25" fill="none" xmlns="http://www.w3.org/2000/svg">
<path d="M10.34 16.4552C9.652 16.3952 8.954 16.3652 8.25 16.3652H7.5C6.30653 16.3652 5.16193 15.8911 4.31802 15.0472C3.47411 14.2033 3 13.0587 3 11.8652C3 10.6718 3.47411 9.52717 4.31802 8.68325C5.16193 7.83934 6.30653 7.36523 7.5 7.36523H8.25C8.954 7.36523 9.652 7.33523 10.34 7.27523M10.34 16.4552C10.593 17.4172 10.924 18.3472 11.325 19.2382C11.572 19.7882 11.385 20.4482 10.862 20.7492L10.205 21.1292C9.654 21.4472 8.945 21.2462 8.678 20.6682C8.04429 19.2973 7.56146 17.8615 7.238 16.3862M10.34 16.4552C9.94698 14.9569 9.74868 13.4142 9.75 11.8652C9.75 10.2792 9.955 8.74123 10.34 7.27523M10.34 16.4552C13.4215 16.7193 16.4222 17.5803 19.175 18.9902M10.34 7.27523C13.4215 7.01115 16.4223 6.15016 19.175 4.74023M19.175 18.9902C19.057 19.3702 18.93 19.7442 18.795 20.1152M19.175 18.9902C19.719 17.2368 20.0592 15.4265 20.189 13.5952M19.175 4.74023C19.0577 4.36212 18.931 3.98701 18.795 3.61523M19.175 4.74023C19.719 6.49367 20.0592 8.30394 20.189 10.1352M20.189 10.1352C20.684 10.5482 21 11.1702 21 11.8652C21 12.5602 20.684 13.1822 20.189 13.5952M20.189 10.1352C20.2711 11.2871 20.2711 12.4434 20.189 13.5952" stroke="#E5005C" stroke-linecap="round" stroke-linejoin="round"/>
</svg>
