<svg width="24" height="25" viewBox="0 0 24 25" fill="none" xmlns="http://www.w3.org/2000/svg">
<path d="M9 12.6152H12.75M9 15.6152H12.75M9 18.6152H12.75M15.75 19.3652H18C18.5967 19.3652 19.169 19.1282 19.591 18.7062C20.0129 18.2843 20.25 17.712 20.25 17.1152V6.72323C20.25 5.58823 19.405 4.62523 18.274 4.53123C17.9 4.50022 17.5256 4.47355 17.151 4.45123M17.151 4.45123C17.2174 4.66632 17.2501 4.89015 17.25 5.11523C17.25 5.31415 17.171 5.50491 17.0303 5.64556C16.8897 5.78622 16.6989 5.86523 16.5 5.86523H12C11.586 5.86523 11.25 5.52923 11.25 5.11523C11.25 4.88423 11.285 4.66123 11.35 4.45123M17.151 4.45123C16.868 3.53323 16.012 2.86523 15 2.86523H13.5C13.0192 2.86535 12.5511 3.01938 12.1643 3.30477C11.7774 3.59017 11.492 3.99193 11.35 4.45123M11.35 4.45123C10.974 4.47423 10.6 4.50123 10.226 4.53123C9.095 4.62523 8.25 5.58823 8.25 6.72323V8.86523M8.25 8.86523H4.875C4.254 8.86523 3.75 9.36923 3.75 9.99023V21.2402C3.75 21.8612 4.254 22.3652 4.875 22.3652H14.625C15.246 22.3652 15.75 21.8612 15.75 21.2402V9.99023C15.75 9.36923 15.246 8.86523 14.625 8.86523H8.25ZM6.75 12.6152H6.758V12.6232H6.75V12.6152ZM6.75 15.6152H6.758V15.6232H6.75V15.6152ZM6.75 18.6152H6.758V18.6232H6.75V18.6152Z" stroke="#E5005C" stroke-linecap="round" stroke-linejoin="round"/>
</svg>
