<svg width="97" height="43" viewBox="0 0 97 43" fill="none" xmlns="http://www.w3.org/2000/svg">
<path d="M16.2952 0.678821C19.5831 0.678821 22.4561 1.36032 24.9144 2.72322C27.4033 4.05522 29.3392 5.94472 30.722 8.39182C32.1354 10.8388 32.8422 13.6886 32.8422 16.941C32.8422 20.1935 32.1354 23.0432 30.722 25.4903C29.3392 27.9064 27.4033 29.7959 24.9144 31.1588C22.4561 32.5218 19.5831 33.2032 16.2952 33.2032H6.43157L6.38554 31.8093C6.38554 31.8093 6.70814 31.8093 7.35344 31.8093C8.02949 31.8093 8.85909 31.8093 9.84236 31.8093C10.8564 31.8093 11.855 31.8093 12.8383 31.8093C13.8217 31.8093 14.6359 31.8093 15.2812 31.8093C15.9573 31.8093 16.2952 31.8093 16.2952 31.8093C18.9378 31.8093 21.2271 31.1898 23.1629 29.9508C25.1295 28.7118 26.6505 26.9771 27.7259 24.7469C28.8322 22.5166 29.3853 19.9147 29.3853 16.941C29.3853 13.9674 28.8322 11.3654 27.7259 9.13522C26.6505 6.90492 25.1295 5.17032 23.1629 3.93132C21.1963 2.69222 18.9071 2.07272 16.2952 2.07272C16.2952 2.07272 15.9419 2.07272 15.2351 2.07272C14.5591 2.07272 13.6988 2.07272 12.654 2.07272C11.64 2.07272 10.6106 2.07272 9.56579 2.07272C8.55177 2.07272 7.69141 2.07272 6.98471 2.07272C6.27801 2.07272 5.92456 2.07272 5.92456 2.07272V0.678821H16.2952ZM7.21515 0.678821V33.2032H4.21921V0.678821H7.21515ZM4.3575 29.8114V33.2032H0.670135V32.7386C0.670135 32.7386 0.762291 32.7386 0.946704 32.7386C1.16177 32.7386 1.2693 32.7386 1.2693 32.7386C2.06826 32.7386 2.74431 32.4598 3.29735 31.9022C3.88124 31.3137 4.18846 30.6168 4.21921 29.8114H4.3575ZM4.3575 4.07072H4.21921C4.21921 3.26532 3.92727 2.58382 3.34347 2.02632C2.75958 1.43772 2.06826 1.14352 1.2693 1.14352C1.2693 1.14352 1.17715 1.14352 0.992733 1.14352C0.808419 1.14352 0.716263 1.14352 0.716263 1.14352L0.670135 0.678821H4.3575V4.07072ZM42.8952 0.678821H49.3941C50.7768 0.678821 52.0213 0.88022 53.1276 1.28292C54.2645 1.68552 55.217 2.27412 55.9852 3.04852C56.7534 3.79192 57.3372 4.70572 57.7367 5.78982C58.1669 6.84302 58.382 8.05102 58.382 9.41402C58.382 10.9008 58.0287 12.3257 57.3219 13.6886C56.6459 15.0515 55.7087 16.1666 54.5103 17.034C53.3427 17.8703 52.0213 18.2885 50.5464 18.2885C51.0688 18.5053 51.6372 18.9544 52.2519 19.6359C52.8664 20.2864 53.4041 20.9214 53.865 21.5409C53.865 21.5409 54.0647 21.8507 54.4642 22.4702C54.8944 23.0587 55.4167 23.7866 56.0314 24.654C56.6766 25.5213 57.3219 26.3731 57.9672 27.2094C58.6125 28.0458 59.1656 28.7118 59.6265 29.2074C60.241 29.8888 60.8556 30.4929 61.4701 31.0194C62.0847 31.546 62.7453 31.9642 63.4521 32.274C64.1896 32.5837 65.0038 32.7386 65.8949 32.7386V33.2032H63.3599C61.9465 33.2032 60.7173 32.9864 59.6726 32.5527C58.6586 32.1191 57.7982 31.5925 57.0914 30.973C56.3847 30.3225 55.7854 29.703 55.2938 29.1144C55.2017 28.9905 54.9405 28.6343 54.5103 28.0458C54.1109 27.4572 53.6192 26.7603 53.0353 25.9549C52.4823 25.1186 51.9292 24.2977 51.376 23.4924C50.823 22.687 50.3467 22.0055 49.9472 21.448C49.5478 20.8594 49.3173 20.5187 49.2558 20.4258C48.672 19.6514 48.0267 18.939 47.32 18.2885C46.6132 17.638 45.845 17.3127 45.0154 17.3127V16.8481C45.0154 16.8481 45.2458 16.8636 45.7067 16.8946C46.1985 16.8946 46.7823 16.8791 47.4583 16.8481C48.2572 16.8171 49.1329 16.6932 50.0855 16.4764C51.038 16.2596 51.9292 15.8104 52.7588 15.129C53.5885 14.4475 54.2184 13.4098 54.6486 12.0159C54.7408 11.6752 54.8176 11.257 54.8791 10.7614C54.9405 10.2348 54.9558 9.72372 54.9251 9.22812C54.8944 7.12182 54.3567 5.44912 53.3119 4.21012C52.2979 2.94012 50.9305 2.25862 49.2098 2.16572C48.3493 2.10372 47.4583 2.08822 46.5364 2.11922C45.6453 2.11922 44.8925 2.11922 44.278 2.11922C43.6634 2.11922 43.3561 2.11922 43.3561 2.11922C43.3561 2.08822 43.31 1.96432 43.2178 1.74752C43.1564 1.49972 43.0795 1.26742 42.9874 1.05052C42.926 0.80272 42.8952 0.678821 42.8952 0.678821ZM43.4944 0.678821V33.2032H40.4984V0.678821H43.4944ZM40.6367 29.8114V33.2032H36.9494V32.7386C36.9494 32.7386 37.0415 32.7386 37.2259 32.7386C37.441 32.7386 37.5485 32.7386 37.5485 32.7386C38.3475 32.7386 39.0235 32.4598 39.5766 31.9022C40.1604 31.3137 40.4677 30.6168 40.4984 29.8114H40.6367ZM40.6367 4.07072H40.4984C40.4677 3.26532 40.1604 2.58382 39.5766 2.02632C39.0235 1.43772 38.3475 1.14352 37.5485 1.14352C37.5485 1.14352 37.441 1.14352 37.2259 1.14352C37.0415 1.14352 36.9494 1.14352 36.9494 1.14352V0.678821H40.6367V4.07072ZM43.3561 29.8114H43.4944C43.4944 30.6168 43.7863 31.3137 44.3701 31.9022C44.9539 32.4598 45.6453 32.7386 46.4443 32.7386C46.4443 32.7386 46.5364 32.7386 46.7208 32.7386C46.9052 32.7386 46.9973 32.7386 46.9973 32.7386V33.2032H43.3561V29.8114ZM96.031 19.6359L95.4784 26.9307C94.6789 28.2626 93.6651 29.4552 92.436 30.5083C91.2376 31.5305 89.8092 32.3514 88.1496 32.9709C86.5207 33.5594 84.6468 33.8537 82.5269 33.8537C79.3307 33.8227 76.4886 33.1103 73.9996 31.7164C71.5105 30.3225 69.5594 28.371 68.1459 25.862C66.7631 23.322 66.0718 20.3329 66.0718 16.8946C66.0718 13.5182 66.7631 10.5755 68.1459 8.06652C69.5286 5.52652 71.4645 3.55962 73.9534 2.16572C76.4727 0.74082 79.4229 0.0283203 82.8027 0.0283203C85.0773 0.0283203 87.1199 0.338121 88.9332 0.957621C90.7774 1.54612 92.3745 2.28962 93.7266 3.18792L94.6481 9.73922H94.2335C93.5579 7.01332 92.1751 4.95352 90.0859 3.55962C87.9958 2.13472 85.5684 1.42222 82.8027 1.42222C80.0995 1.42222 77.7484 2.07272 75.7505 3.37372C73.7844 4.64372 72.248 6.44032 71.1418 8.76352C70.0664 11.0557 69.5286 13.7505 69.5286 16.8481C69.5286 19.9457 70.0664 22.656 71.1418 24.9792C72.248 27.3024 73.769 29.1144 75.7049 30.4154C77.6711 31.7164 79.9457 32.3979 82.5269 32.4598C84.7083 32.4598 86.7211 32.0571 88.5642 31.2518C90.4391 30.4154 92.0064 29.068 93.2663 27.2094C94.5261 25.3199 95.3247 22.7954 95.663 19.6359H96.031Z" fill="#E5005C"/>
<path d="M5.25096 42.6151C4.812 42.6151 4.40597 42.5349 4.03278 42.3745C3.66515 42.2141 3.34146 41.99 3.06161 41.7024C2.78723 41.4148 2.57325 41.0774 2.41959 40.6902C2.26593 40.303 2.18915 39.8798 2.18915 39.4207C2.18915 38.9616 2.26325 38.5385 2.41135 38.1513C2.56502 37.7586 2.77899 37.4211 3.05338 37.139C3.33322 36.8514 3.65969 36.6302 4.03278 36.4753C4.40597 36.3149 4.812 36.2347 5.25096 36.2347C5.68992 36.2347 6.08225 36.3093 6.42796 36.4587C6.77913 36.608 7.07544 36.8072 7.31679 37.0561C7.55825 37.2995 7.73115 37.5677 7.83541 37.8609L6.83121 38.3338C6.71604 38.0241 6.52121 37.7696 6.24683 37.5705C5.97254 37.3658 5.64052 37.2635 5.25096 37.2635C4.86686 37.2635 4.5266 37.3548 4.23029 37.5373C3.93953 37.7198 3.71177 37.9715 3.5472 38.2923C3.38808 38.6132 3.30852 38.9893 3.30852 39.4207C3.30852 39.8522 3.38808 40.2311 3.5472 40.5574C3.71177 40.8782 3.93953 41.1299 4.23029 41.3125C4.5266 41.495 4.86686 41.5863 5.25096 41.5863C5.64052 41.5863 5.97254 41.4867 6.24683 41.2876C6.52121 41.0829 6.71604 40.8257 6.83121 40.5159L7.83541 40.9889C7.73115 41.282 7.55825 41.5531 7.31679 41.802C7.07544 42.0454 6.77913 42.2417 6.42796 42.3911C6.08225 42.5404 5.68992 42.6151 5.25096 42.6151ZM11.668 42.6151C11.2289 42.6151 10.8285 42.5128 10.4663 42.3081C10.1096 42.1034 9.82427 41.8241 9.6103 41.4701C9.40178 41.1161 9.29752 40.7123 9.29752 40.2587C9.29752 39.8052 9.40178 39.4014 9.6103 39.0474C9.82427 38.6934 10.1096 38.414 10.4663 38.2094C10.8229 38.0047 11.2235 37.9024 11.668 37.9024C12.107 37.9024 12.5048 38.0047 12.8614 38.2094C13.2181 38.414 13.5006 38.6934 13.7091 39.0474C13.9231 39.3958 14.0302 39.7996 14.0302 40.2587C14.0302 40.7123 13.9231 41.1161 13.7091 41.4701C13.4952 41.8241 13.2099 42.1034 12.8531 42.3081C12.4965 42.5128 12.1014 42.6151 11.668 42.6151ZM11.668 41.6194C11.9094 41.6194 12.1207 41.5614 12.3017 41.4452C12.4883 41.329 12.6337 41.1686 12.738 40.964C12.8477 40.7538 12.9026 40.5187 12.9026 40.2587C12.9026 39.9932 12.8477 39.7609 12.738 39.5618C12.6337 39.3571 12.4883 39.1967 12.3017 39.0806C12.1207 38.9589 11.9094 38.898 11.668 38.898C11.421 38.898 11.2043 38.9589 11.0177 39.0806C10.8312 39.1967 10.6831 39.3571 10.5732 39.5618C10.4691 39.7609 10.4169 39.9932 10.4169 40.2587C10.4169 40.5187 10.4691 40.7538 10.5732 40.964C10.6831 41.1686 10.8312 41.329 11.0177 41.4452C11.2043 41.5614 11.421 41.6194 11.668 41.6194ZM15.7532 42.5155V38.0019H16.7656V38.8897L16.6833 38.7321C16.7875 38.461 16.9576 38.2564 17.1935 38.1181C17.435 37.9743 17.7148 37.9024 18.0331 37.9024C18.3623 37.9024 18.6532 37.9743 18.9055 38.1181C19.1635 38.2619 19.3637 38.4638 19.5064 38.7238C19.649 38.9782 19.7204 39.2741 19.7204 39.6116V42.5155H18.6422V39.8688C18.6422 39.6696 18.6038 39.4982 18.5269 39.3544C18.4501 39.2105 18.3431 39.0999 18.206 39.0225C18.0742 38.9395 17.9179 38.898 17.7368 38.898C17.5612 38.898 17.4048 38.9395 17.2676 39.0225C17.1305 39.0999 17.0234 39.2105 16.9466 39.3544C16.8699 39.4982 16.8315 39.6696 16.8315 39.8688V42.5155H15.7532ZM23.2413 42.6151C22.7638 42.6151 22.3469 42.5017 21.9902 42.2749C21.639 42.0426 21.3975 41.7301 21.2659 41.3373L22.0725 40.9474C22.1877 41.2018 22.3469 41.401 22.5499 41.5448C22.7584 41.6886 22.9888 41.7605 23.2413 41.7605C23.4388 41.7605 23.5951 41.7162 23.7104 41.6277C23.8257 41.5392 23.8832 41.4231 23.8832 41.2793C23.8832 41.1908 23.8585 41.1189 23.8092 41.0635C23.7652 41.0027 23.7022 40.9529 23.6198 40.9142C23.543 40.8699 23.458 40.834 23.3647 40.8063L22.6322 40.5989C22.2535 40.4883 21.9655 40.3196 21.768 40.0928C21.5759 39.866 21.4799 39.5977 21.4799 39.288C21.4799 39.0114 21.5484 38.7708 21.6856 38.5661C21.8283 38.3559 22.0231 38.1928 22.27 38.0766C22.5225 37.9605 22.8105 37.9024 23.1342 37.9024C23.5567 37.9024 23.9298 38.0047 24.2536 38.2094C24.5773 38.414 24.8078 38.7017 24.9449 39.0723L24.1219 39.4622C24.0451 39.2576 23.9161 39.0944 23.7351 38.9727C23.554 38.851 23.351 38.7902 23.126 38.7902C22.945 38.7902 22.8023 38.8316 22.6981 38.9146C22.5938 38.9976 22.5416 39.1054 22.5416 39.2382C22.5416 39.3212 22.5635 39.3931 22.6075 39.4539C22.6513 39.5148 22.7117 39.5645 22.7885 39.6033C22.8709 39.642 22.9641 39.6779 23.0684 39.7111L23.7845 39.9268C24.1521 40.0375 24.4346 40.2034 24.6323 40.4247C24.8352 40.6459 24.9368 40.917 24.9368 41.2378C24.9368 41.5088 24.8654 41.7494 24.7227 41.9596C24.5801 42.1643 24.3826 42.3247 24.1301 42.4409C23.8777 42.557 23.5814 42.6151 23.2413 42.6151ZM28.2674 42.6151C27.9218 42.6151 27.62 42.5377 27.3621 42.3828C27.1097 42.2279 26.9149 42.0122 26.7778 41.7356C26.646 41.459 26.5801 41.1355 26.5801 40.7648V38.0019H27.6584V40.6736C27.6584 40.8616 27.6941 41.0276 27.7654 41.1714C27.8422 41.3097 27.9492 41.4203 28.0864 41.5033C28.229 41.5807 28.3882 41.6194 28.5637 41.6194C28.7393 41.6194 28.8958 41.5807 29.033 41.5033C29.1701 41.4203 29.2771 41.3069 29.3539 41.1631C29.4308 41.0193 29.4692 40.8478 29.4692 40.6487V38.0019H30.5474V42.5155H29.5268V41.6277L29.6173 41.7854C29.513 42.062 29.3402 42.2694 29.0987 42.4077C28.8628 42.5459 28.5857 42.6151 28.2674 42.6151ZM32.455 42.5155V36.2347H33.5333V42.5155H32.455ZM37.4753 42.5653C36.9706 42.5653 36.5782 42.427 36.2984 42.1505C36.024 41.8684 35.8868 41.4729 35.8868 40.964V38.9727H35.1131V38.0019H35.1955C35.4149 38.0019 35.585 37.9439 35.7058 37.8277C35.8265 37.7115 35.8868 37.5428 35.8868 37.3216V36.9731H36.965V38.0019H37.9939V38.9727H36.965V40.9059C36.965 41.0552 36.9897 41.1825 37.0391 41.2876C37.094 41.3927 37.1763 41.4729 37.286 41.5282C37.4013 41.5835 37.5467 41.6111 37.7223 41.6111C37.7607 41.6111 37.8045 41.6084 37.8539 41.6029C37.9088 41.5973 37.961 41.5918 38.0104 41.5863V42.5155C37.9335 42.5266 37.8457 42.5377 37.7469 42.5487C37.6482 42.5598 37.5576 42.5653 37.4753 42.5653ZM41.8886 42.6151C41.4496 42.6151 41.0491 42.5128 40.687 42.3081C40.3303 42.1034 40.045 41.8241 39.831 41.4701C39.6225 41.1161 39.5182 40.7123 39.5182 40.2587C39.5182 39.8052 39.6225 39.4014 39.831 39.0474C40.045 38.6934 40.3303 38.414 40.687 38.2094C41.0436 38.0047 41.4442 37.9024 41.8886 37.9024C42.3277 37.9024 42.7254 38.0047 43.0821 38.2094C43.4388 38.414 43.7213 38.6934 43.9298 39.0474C44.1438 39.3958 44.2508 39.7996 44.2508 40.2587C44.2508 40.7123 44.1438 41.1161 43.9298 41.4701C43.7159 41.8241 43.4306 42.1034 43.0738 42.3081C42.7172 42.5128 42.3221 42.6151 41.8886 42.6151ZM41.8886 41.6194C42.13 41.6194 42.3413 41.5614 42.5224 41.4452C42.709 41.329 42.8544 41.1686 42.9587 40.964C43.0684 40.7538 43.1232 40.5187 43.1232 40.2587C43.1232 39.9932 43.0684 39.7609 42.9587 39.5618C42.8544 39.3571 42.709 39.1967 42.5224 39.0806C42.3413 38.9589 42.13 38.898 41.8886 38.898C41.6417 38.898 41.4249 38.9589 41.2384 39.0806C41.0518 39.1967 40.9037 39.3571 40.7939 39.5618C40.6897 39.7609 40.6376 39.9932 40.6376 40.2587C40.6376 40.5187 40.6897 40.7538 40.7939 40.964C40.9037 41.1686 41.0518 41.329 41.2384 41.4452C41.4249 41.5614 41.6417 41.6194 41.8886 41.6194ZM45.9738 42.5155V38.0019H46.9863V39.0059L46.9039 38.8565C47.0082 38.5191 47.1701 38.284 47.3895 38.1513C47.6145 38.0185 47.8833 37.9522 48.1961 37.9522H48.4595V38.9146H48.0727C47.7654 38.9146 47.5185 39.0114 47.3319 39.205C47.1454 39.3931 47.052 39.6586 47.052 40.0015V42.5155H45.9738ZM49.9577 42.5155V38.0019H51.0359V42.5155H49.9577ZM49.9577 37.4958V36.3342H51.0359V37.4958H49.9577ZM54.2948 42.6151C53.9822 42.6151 53.7106 42.5625 53.48 42.4574C53.2496 42.3523 53.0712 42.203 52.945 42.0094C52.8188 41.8103 52.7558 41.5807 52.7558 41.3208C52.7558 41.0718 52.8106 40.8506 52.9203 40.657C53.0301 40.4579 53.2002 40.2919 53.4307 40.1592C53.6612 40.0264 53.9519 39.9324 54.3031 39.8771L55.7682 39.6365V40.4662L54.5089 40.6819C54.2948 40.7206 54.1357 40.7897 54.0315 40.8893C53.9272 40.9889 53.8751 41.1189 53.8751 41.2793C53.8751 41.4341 53.9328 41.5586 54.0479 41.6526C54.1687 41.7411 54.3169 41.7854 54.4924 41.7854C54.7174 41.7854 54.9149 41.7384 55.0851 41.6443C55.2607 41.5448 55.3951 41.4093 55.4883 41.2378C55.5871 41.0663 55.6365 40.8782 55.6365 40.6736V39.512C55.6365 39.3184 55.5596 39.158 55.406 39.0308C55.2579 38.898 55.0604 38.8316 54.8135 38.8316C54.5829 38.8316 54.3772 38.8953 54.1961 39.0225C54.0206 39.1442 53.8916 39.3073 53.8093 39.512L52.9286 39.0806C53.0164 38.8427 53.1535 38.638 53.3401 38.4666C53.5322 38.2896 53.7572 38.1513 54.015 38.0517C54.2729 37.9522 54.5528 37.9024 54.8545 37.9024C55.2222 37.9024 55.546 37.9715 55.8258 38.1098C56.1056 38.2426 56.3224 38.4306 56.476 38.674C56.6352 38.9118 56.7147 39.1912 56.7147 39.512V42.5155H55.6941V41.7439L55.9246 41.7273C55.8093 41.9209 55.6721 42.0841 55.513 42.2168C55.3539 42.3441 55.1729 42.4436 54.9698 42.5155C54.7667 42.5819 54.5418 42.6151 54.2948 42.6151ZM63.1087 42.6151C62.6474 42.6151 62.2446 42.51 61.8984 42.2998C61.5528 42.0896 61.2839 41.8047 61.0918 41.4452C60.8998 41.0857 60.8037 40.6874 60.8037 40.2504C60.8037 39.7969 60.8998 39.3958 61.0918 39.0474C61.2894 38.6934 61.5555 38.414 61.8902 38.2094C62.2307 38.0047 62.6087 37.9024 63.0263 37.9024C63.3775 37.9024 63.685 37.9605 63.9479 38.0766C64.2167 38.1928 64.4449 38.3532 64.6314 38.5578C64.8179 38.7625 64.9607 38.9976 65.0589 39.2631C65.1581 39.5231 65.2067 39.8052 65.2067 40.1094C65.2067 40.1868 65.2018 40.267 65.1909 40.35C65.1849 40.433 65.172 40.5049 65.1492 40.5657H61.6927V39.736H64.5401L64.0302 40.126C64.0798 39.8715 64.0659 39.6447 63.9886 39.4456C63.9181 39.2465 63.7971 39.0888 63.6265 38.9727C63.4618 38.8565 63.2624 38.7985 63.0263 38.7985C62.8011 38.7985 62.6008 38.8565 62.4252 38.9727C62.2496 39.0833 62.1152 39.2493 62.0219 39.4705C61.9341 39.6862 61.9012 39.949 61.9231 40.2587C61.9012 40.5353 61.9369 40.7814 62.0302 40.9972C62.129 41.2074 62.2714 41.3705 62.4579 41.4867C62.6504 41.6029 62.8696 41.6609 63.1166 41.6609C63.3636 41.6609 63.5719 41.6084 63.7425 41.5033C63.9181 41.3982 64.055 41.2571 64.1532 41.0801L65.0262 41.5116C64.9379 41.7273 64.801 41.9181 64.6145 42.0841C64.428 42.25 64.2058 42.38 63.9479 42.474C63.6959 42.5681 63.4152 42.6151 63.1087 42.6151ZM66.9298 42.5155V38.0019H67.9427V39.0474L67.8266 38.8731C67.9089 38.5468 68.0736 38.3034 68.3206 38.143C68.5676 37.9826 68.8583 37.9024 69.1936 37.9024C69.5606 37.9024 69.885 37.9992 70.1648 38.1928C70.4445 38.3864 70.625 38.6408 70.7074 38.9561L70.4028 38.981C70.5407 38.6214 70.7461 38.3532 71.0209 38.1762C71.2946 37.9936 71.6101 37.9024 71.9672 37.9024C72.2857 37.9024 72.5684 37.9743 72.8144 38.1181C73.0673 38.2619 73.2648 38.4638 73.4076 38.7238C73.5505 38.9782 73.6219 39.2741 73.6219 39.6116V42.5155H72.5436V39.8688C72.5436 39.6696 72.5079 39.4982 72.4364 39.3544C72.365 39.2105 72.2658 39.0999 72.1398 39.0225C72.0138 38.9395 71.8601 38.898 71.6786 38.898C71.5089 38.898 71.3581 38.9395 71.2262 39.0225C71.0943 39.0999 70.9931 39.2105 70.9217 39.3544C70.8502 39.4982 70.8145 39.6696 70.8145 39.8688V42.5155H69.7362V39.8688C69.7362 39.6696 69.7005 39.4982 69.6291 39.3544C69.5586 39.2105 69.4565 39.0999 69.3255 39.0225C69.1985 38.9395 69.0478 38.898 68.8722 38.898C68.7025 38.898 68.5518 38.9395 68.4198 39.0225C68.2879 39.0999 68.1867 39.2105 68.1153 39.3544C68.0439 39.4982 68.0082 39.6696 68.0082 39.8688V42.5155H66.9298ZM78.9846 42.5155V37.3299H77.3954V36.3342H81.6759V37.3299H80.1115V42.5155H78.9846ZM83.2641 42.5155V36.3342H84.3831V42.5155H83.2641Z" fill="#CCCCCC"/>
</svg>
