<svg width="49" height="49" viewBox="0 0 49 49" fill="none" xmlns="http://www.w3.org/2000/svg">
<path d="M9.81739 22.229C6.61912 44.0414 11.8665 53.0015 30.0328 46.7504C15.3049 42.6714 11.954 35.5247 9.81739 22.229Z" fill="#E5005C"/>
<path d="M18.0421 11.1368C1.79433 18.3191 -7.44898 27.7966 9.13817 42.1628C3.94133 24.1996 10.4312 18.8899 18.0421 11.1368Z" fill="#E5005C"/>
<path d="M30.2035 11.9731C13.3508 1.13136 5.02237 2.33379 1.57348 20.0791C11.7302 9.38863 16.7329 7.04297 30.2035 11.9731Z" fill="#E5005C"/>
<path d="M39.2499 27.0529C42.2065 5.20648 36.8603 -3.69501 18.7642 2.75684C33.5364 6.67257 36.9662 13.7818 39.2499 27.0529Z" fill="#E5005C"/>
<path d="M31.1485 38.2356C47.3157 30.8739 56.4536 21.2945 39.7084 7.11287C45.1038 25.0175 38.673 30.3986 31.1485 38.2356Z" fill="#E5005C"/>
<path d="M18.9786 37.5339C35.9502 48.1884 44.2649 46.8939 47.5171 29.1115C37.4793 39.9137 32.5029 42.3146 18.9786 37.5339Z" fill="#E5005C"/>
<path fill-rule="evenodd" clip-rule="evenodd" d="M14.8054 21.3931C18.0533 21.5414 19.6363 20.4171 18.1216 16.9019L20.3994 15.235C21.9902 18.1315 25.2751 17.4678 25.4235 14.2199L28.363 14.8328C28.0995 18.5062 30.3051 19.4684 32.9694 17.7234L34.6753 20.1945C31.5855 21.8243 32.0169 24.9551 35.7294 25.4118L35.1165 28.3513C31.9447 27.5842 29.8992 29.4053 32.0326 32.9967L29.5226 34.5094C28.3182 31.5348 24.5687 31.8901 24.4985 35.5244L21.559 34.9116C21.8225 31.2382 19.8101 30.2369 16.9526 32.0209L15.4399 29.5109C18.2974 27.7268 17.7508 25.0216 14.3858 24.2936L14.8054 21.3931ZM26.3078 31.5387C29.9363 30.8057 32.2835 27.2699 31.5504 23.6415C30.8174 20.013 27.2816 17.6658 23.6532 18.3989C20.0247 19.1319 17.6775 22.6677 18.4106 26.2961C19.1436 29.9246 22.6793 32.2718 26.3078 31.5387Z" fill="#CCCCCC"/>
</svg>
