<svg width="25" height="25" viewBox="0 0 25 25" fill="none" xmlns="http://www.w3.org/2000/svg">
<path d="M11.5 20.2747C11.5 20.8957 10.716 21.3997 9.75 21.3997H6.25C5.284 21.3997 4.5 20.8957 4.5 20.2747V4.52466C4.5 3.90366 5.284 3.39966 6.25 3.39966H9.75C10.2141 3.39966 10.6592 3.51818 10.9874 3.72916C11.3156 3.94014 11.5 4.22629 11.5 4.52466V20.2747Z" stroke="#E5005C" stroke-linecap="round" stroke-linejoin="round"/>
<path d="M19.75 13.3997C20.716 13.3997 21.5 12.8397 21.5 12.1497V4.64966C21.5 4.31814 21.3156 4.00019 20.9874 3.76577C20.6592 3.53135 20.2141 3.39966 19.75 3.39966H16.25C15.284 3.39966 14.5 3.95966 14.5 4.64966V12.1497C14.5 12.8397 15.284 13.3997 16.25 13.3997H19.75Z" stroke="#E5005C" stroke-linecap="round" stroke-linejoin="round"/>
</svg>
