<svg width="24" height="25" viewBox="0 0 24 25" fill="none" xmlns="http://www.w3.org/2000/svg">
<path d="M9.75 3.71913V9.43313C9.75 9.72861 9.69181 10.0212 9.57874 10.2942C9.46567 10.5672 9.29993 10.8152 9.091 11.0241L5 15.1151M9.75 3.71913C9.499 3.74213 9.249 3.76913 9 3.80113M9.75 3.71913C11.2468 3.57995 12.7532 3.57995 14.25 3.71913M5 15.1151L5.77 14.9221C7.863 14.4049 10.0718 14.6506 12 15.6151C13.9282 16.5796 16.137 16.8253 18.23 16.3081L19.8 15.9151M5 15.1151L2.798 17.3181C1.565 18.5491 2.147 20.6351 3.865 20.9281C6.509 21.3801 9.227 21.6151 12 21.6151C14.7262 21.6161 17.4476 21.3863 20.135 20.9281C21.852 20.6351 22.434 18.5491 21.202 17.3171L19.8 15.9151M14.25 3.71913V9.43313C14.25 10.0301 14.487 10.6031 14.909 11.0241L19.8 15.9151M14.25 3.71913C14.501 3.74213 14.751 3.76913 15 3.80113" stroke="#E5005C" stroke-linecap="round" stroke-linejoin="round"/>
</svg>
