<svg width="25" height="25" viewBox="0 0 25 25" fill="none" xmlns="http://www.w3.org/2000/svg">
<path d="M15.357 17.4817C17.2202 17.2611 19.0509 16.8213 20.811 16.1717C19.3204 14.5205 18.4967 12.3742 18.5 10.1497V9.39966C18.5 7.80836 17.8678 6.28224 16.7426 5.15702C15.6174 4.0318 14.0913 3.39966 12.5 3.39966C10.9087 3.39966 9.38257 4.0318 8.25735 5.15702C7.13213 6.28224 6.49999 7.80836 6.49999 9.39966V10.1497C6.50301 12.3743 5.67898 14.5206 4.18799 16.1717C5.92099 16.8117 7.74799 17.2567 9.64299 17.4817M15.357 17.4817C13.459 17.7068 11.541 17.7068 9.64299 17.4817M15.357 17.4817C15.5011 17.9315 15.5369 18.4091 15.4616 18.8754C15.3862 19.3417 15.2018 19.7837 14.9234 20.1652C14.6449 20.5468 14.2803 20.8573 13.8592 21.0713C13.4381 21.2853 12.9724 21.3968 12.5 21.3968C12.0276 21.3968 11.5619 21.2853 11.1408 21.0713C10.7197 20.8573 10.3551 20.5468 10.0766 20.1652C9.79816 19.7837 9.61375 19.3417 9.5384 18.8754C9.46305 18.4091 9.49889 17.9315 9.64299 17.4817" stroke="#E5005C" stroke-linecap="round" stroke-linejoin="round"/>
</svg>
