<svg width="25" height="25" viewBox="0 0 25 25" fill="none" xmlns="http://www.w3.org/2000/svg">
<path d="M17.559 15.9207C18.0268 15.6012 18.5755 15.4207 19.1416 15.4001C19.7076 15.3795 20.268 15.5195 20.7578 15.8041C21.2476 16.0886 21.6469 16.506 21.9093 17.008C22.1718 17.51 22.2868 18.076 22.241 18.6407C21.0412 19.06 19.7668 19.2232 18.5 19.1197C18.4961 17.9863 18.1697 16.8764 17.559 15.9217C17.0169 15.0714 16.2691 14.3717 15.3848 13.8872C14.5005 13.4026 13.5083 13.149 12.5 13.1497C11.4918 13.1491 10.4998 13.4029 9.61573 13.8874C8.73163 14.3719 7.984 15.0716 7.442 15.9217M18.499 19.1187L18.5 19.1497C18.5 19.3747 18.488 19.5967 18.463 19.8157C16.6484 20.8568 14.5921 21.403 12.5 21.3997C10.33 21.3997 8.293 20.8237 6.537 19.8157C6.51129 19.5842 6.49894 19.3515 6.5 19.1187M6.5 19.1187C5.23363 19.2259 3.95991 19.0633 2.761 18.6417C2.71535 18.0772 2.83039 17.5114 3.09283 17.0096C3.35526 16.5077 3.75437 16.0905 4.244 15.8059C4.73364 15.5214 5.2938 15.3813 5.85972 15.4018C6.42564 15.4223 6.97421 15.6025 7.442 15.9217M6.5 19.1187C6.50359 17.9854 6.83162 16.8765 7.442 15.9217M15.5 7.14966C15.5 7.94531 15.1839 8.70837 14.6213 9.27098C14.0587 9.83359 13.2956 10.1497 12.5 10.1497C11.7044 10.1497 10.9413 9.83359 10.3787 9.27098C9.81607 8.70837 9.5 7.94531 9.5 7.14966C9.5 6.35401 9.81607 5.59095 10.3787 5.02834C10.9413 4.46573 11.7044 4.14966 12.5 4.14966C13.2956 4.14966 14.0587 4.46573 14.6213 5.02834C15.1839 5.59095 15.5 6.35401 15.5 7.14966ZM21.5 10.1497C21.5 10.4451 21.4418 10.7377 21.3287 11.0107C21.2157 11.2837 21.0499 11.5317 20.841 11.7406C20.6321 11.9496 20.384 12.1153 20.111 12.2284C19.8381 12.3415 19.5455 12.3997 19.25 12.3997C18.9545 12.3997 18.6619 12.3415 18.389 12.2284C18.116 12.1153 17.8679 11.9496 17.659 11.7406C17.4501 11.5317 17.2843 11.2837 17.1713 11.0107C17.0582 10.7377 17 10.4451 17 10.1497C17 9.55292 17.2371 8.98062 17.659 8.55867C18.081 8.13671 18.6533 7.89966 19.25 7.89966C19.8467 7.89966 20.419 8.13671 20.841 8.55867C21.2629 8.98062 21.5 9.55292 21.5 10.1497ZM8 10.1497C8 10.4451 7.9418 10.7377 7.82873 11.0107C7.71566 11.2837 7.54992 11.5317 7.34099 11.7406C7.13206 11.9496 6.88402 12.1153 6.61104 12.2284C6.33806 12.3415 6.04547 12.3997 5.75 12.3997C5.45453 12.3997 5.16195 12.3415 4.88896 12.2284C4.61598 12.1153 4.36794 11.9496 4.15901 11.7406C3.95008 11.5317 3.78434 11.2837 3.67127 11.0107C3.5582 10.7377 3.5 10.4451 3.5 10.1497C3.5 9.55292 3.73705 8.98062 4.15901 8.55867C4.58097 8.13671 5.15326 7.89966 5.75 7.89966C6.34674 7.89966 6.91903 8.13671 7.34099 8.55867C7.76295 8.98062 8 9.55292 8 10.1497Z" stroke="#E5005C" stroke-linecap="round" stroke-linejoin="round"/>
</svg>
