<svg width="24" height="25" viewBox="0 0 24 25" fill="none" xmlns="http://www.w3.org/2000/svg">
<path d="M19.5 14.8652V12.2402C19.5 11.3451 19.1444 10.4867 18.5115 9.85375C17.8786 9.22081 17.0201 8.86523 16.125 8.86523H14.625C14.3266 8.86523 14.0405 8.74671 13.8295 8.53573C13.6185 8.32475 13.5 8.0386 13.5 7.74023V6.24023C13.5 5.34513 13.1444 4.48668 12.5115 3.85375C11.8785 3.22081 11.0201 2.86523 10.125 2.86523H8.25M8.25 15.6152H15.75M8.25 18.6152H12M10.5 2.86523H5.625C5.004 2.86523 4.5 3.36923 4.5 3.99023V21.2402C4.5 21.8612 5.004 22.3652 5.625 22.3652H18.375C18.996 22.3652 19.5 21.8612 19.5 21.2402V11.8652C19.5 9.47829 18.5518 7.1891 16.864 5.50127C15.1761 3.81345 12.8869 2.86523 10.5 2.86523Z" stroke="#E5005C" stroke-linecap="round" stroke-linejoin="round"/>
</svg>
