<svg width="78" height="78" viewBox="0 0 78 78" fill="none" xmlns="http://www.w3.org/2000/svg">
<path d="M15.2957 35.011C10.1323 70.2258 18.6038 84.6914 47.9323 74.5993C24.1551 68.014 18.7452 56.476 15.2957 35.011Z" fill="#E5005C"/>
<path d="M28.574 17.1032C2.343 28.6986 -12.5798 43.9995 14.1992 67.1929C5.8092 38.1923 16.2868 29.6202 28.574 17.1032Z" fill="#E5005C"/>
<path d="M48.2079 18.4534C21.0003 0.950042 7.55447 2.89131 1.98645 31.54C18.3839 14.2809 26.4605 10.494 48.2079 18.4534Z" fill="#E5005C"/>
<path d="M62.8128 42.7989C67.586 7.5291 58.9549 -6.84184 29.7399 3.57429C53.5886 9.896 59.1259 21.3734 62.8128 42.7989Z" fill="#E5005C"/>
<path d="M49.7336 60.8526C75.8346 48.9675 90.5871 33.5023 63.553 10.6068C72.2635 39.5128 61.8815 48.2003 49.7336 60.8526Z" fill="#E5005C"/>
<path d="M30.086 59.7198C57.4856 76.9209 70.9092 74.8309 76.1597 46.1223C59.9543 63.5619 51.9202 67.438 30.086 59.7198Z" fill="#E5005C"/>
<path fill-rule="evenodd" clip-rule="evenodd" d="M23.3487 33.6614C28.5922 33.9009 31.1478 32.0858 28.7024 26.4106L32.3798 23.7195C34.948 28.3957 40.2514 27.3243 40.4908 22.0808L45.2365 23.0702C44.8111 29.0007 48.3719 30.5541 52.6732 27.737L55.4274 31.7263C50.4391 34.3576 51.1356 39.412 57.1291 40.1493L56.1397 44.895C51.019 43.6566 47.7167 46.5967 51.1609 52.3948L47.1086 54.8369C45.1643 50.0346 39.1109 50.6082 38.9975 56.4756L34.2519 55.4862C34.6772 49.5557 31.4284 47.9392 26.8151 50.8194L24.3729 46.7671C28.9862 43.8869 28.1038 39.5194 22.6712 38.3441L23.3487 33.6614ZM41.9186 50.0409C47.7765 48.8575 51.5659 43.1492 50.3824 37.2913C49.199 31.4333 43.4907 27.6439 37.6328 28.8274C31.7748 30.0109 27.9854 35.7191 29.1689 41.5771C30.3524 47.435 36.0606 51.2244 41.9186 50.0409Z" fill="#363031"/>
</svg>
