<svg width="156" height="72" viewBox="0 0 156 72" fill="none" xmlns="http://www.w3.org/2000/svg">
<path d="M50.694 13.2563C54.8304 13.2563 58.4448 14.1023 61.5375 15.7942C64.6687 17.4477 67.1042 19.7933 68.8438 22.8311C70.622 25.8687 71.5111 29.4064 71.5111 33.4439C71.5111 37.4815 70.622 41.019 68.8438 44.0568C67.1042 47.0561 64.6687 49.4017 61.5375 51.0936C58.4448 52.7855 54.8304 53.6314 50.694 53.6314H38.2849L38.227 51.9011C38.227 51.9011 38.6328 51.9011 39.4447 51.9011C40.2952 51.9011 41.3389 51.9011 42.5759 51.9011C43.8516 51.9011 45.108 51.9011 46.345 51.9011C47.5821 51.9011 48.6065 51.9011 49.4183 51.9011C50.2688 51.9011 50.694 51.9011 50.694 51.9011C54.0186 51.9011 56.8986 51.132 59.334 49.594C61.8081 48.0559 63.7216 45.9025 65.0746 43.134C66.4664 40.3653 67.1621 37.1354 67.1621 33.4439C67.1621 29.7525 66.4664 26.5224 65.0746 23.7539C63.7216 20.9853 61.8081 18.832 59.334 17.2939C56.8599 15.7557 53.9799 14.9867 50.694 14.9867C50.694 14.9867 50.2495 14.9867 49.3603 14.9867C48.5099 14.9867 47.4275 14.9867 46.1131 14.9867C44.8374 14.9867 43.5423 14.9867 42.228 14.9867C40.9522 14.9867 39.8699 14.9867 38.9808 14.9867C38.0917 14.9867 37.647 14.9867 37.647 14.9867V13.2563H50.694ZM39.2707 13.2563V53.6314H35.5016V13.2563H39.2707ZM35.6756 49.4209V53.6314H31.0366V53.0547C31.0366 53.0547 31.1526 53.0547 31.3846 53.0547C31.6551 53.0547 31.7904 53.0547 31.7904 53.0547C32.7956 53.0547 33.6461 52.7086 34.3418 52.0164C35.0764 51.2858 35.4629 50.4207 35.5016 49.4209H35.6756ZM35.6756 17.4669H35.5016C35.5016 16.4671 35.1343 15.6211 34.3999 14.9291C33.6653 14.1984 32.7956 13.8332 31.7904 13.8332C31.7904 13.8332 31.6745 13.8332 31.4425 13.8332C31.2106 13.8332 31.0947 13.8332 31.0947 13.8332L31.0366 13.2563H35.6756V17.4669ZM84.1585 13.2563H92.3345C94.0741 13.2563 95.6397 13.5063 97.0315 14.0062C98.4618 14.506 99.6602 15.2367 100.627 16.198C101.593 17.1208 102.328 18.2552 102.83 19.601C103.371 20.9084 103.642 22.408 103.642 24.1C103.642 25.9457 103.197 27.7145 102.308 29.4064C101.458 31.0983 100.279 32.4825 98.7711 33.5593C97.3021 34.5975 95.6397 35.1166 93.7842 35.1166C94.4414 35.3858 95.1565 35.9433 95.9298 36.7893C96.7029 37.5968 97.3793 38.3851 97.9593 39.1541C97.9593 39.1541 98.2105 39.5387 98.7131 40.3077C99.2543 41.0383 99.9114 41.9419 100.685 43.0186C101.496 44.0953 102.308 45.1527 103.12 46.1908C103.932 47.2291 104.628 48.0559 105.208 48.6711C105.981 49.517 106.754 50.2669 107.527 50.9205C108.3 51.5742 109.131 52.0934 110.02 52.4779C110.948 52.8624 111.973 53.0547 113.094 53.0547V53.6314H109.904C108.126 53.6314 106.58 53.3623 105.266 52.8239C103.99 52.2856 102.907 51.6319 102.018 50.8629C101.129 50.0554 100.375 49.2864 99.7568 48.5557C99.6408 48.4019 99.3122 47.9597 98.7711 47.2291C98.2685 46.4985 97.65 45.6333 96.9154 44.6335C96.2197 43.5954 95.5238 42.5763 94.8279 41.5766C94.1322 40.5768 93.533 39.7308 93.0304 39.0388C92.5279 38.3081 92.2379 37.8852 92.1606 37.7698C91.4261 36.8085 90.6143 35.9241 89.7252 35.1166C88.836 34.3091 87.8696 33.9053 86.8259 33.9053V33.3285C86.8259 33.3285 87.1158 33.3478 87.6956 33.3863C88.3142 33.3863 89.0487 33.367 89.8992 33.3285C90.9042 33.2901 92.0059 33.1363 93.2044 32.8671C94.4027 32.598 95.5238 32.0404 96.5675 31.1945C97.6113 30.3485 98.4038 29.0603 98.9451 27.33C99.061 26.907 99.1576 26.3879 99.235 25.7726C99.3122 25.1189 99.3316 24.4845 99.2929 23.8692C99.2543 21.2545 98.5778 19.1781 97.2634 17.64C95.9877 16.0634 94.2674 15.2174 92.1027 15.1021C91.0201 15.0251 89.8992 15.0059 88.7394 15.0444C87.6183 15.0444 86.6712 15.0444 85.8981 15.0444C85.125 15.0444 84.7383 15.0444 84.7383 15.0444C84.7383 15.0059 84.6803 14.8521 84.5644 14.583C84.4871 14.2754 84.3904 13.987 84.2745 13.7177C84.1972 13.4101 84.1585 13.2563 84.1585 13.2563ZM84.9123 13.2563V53.6314H81.1432V13.2563H84.9123ZM81.3172 49.4209V53.6314H76.6782V53.0547C76.6782 53.0547 76.7942 53.0547 77.0262 53.0547C77.2968 53.0547 77.432 53.0547 77.432 53.0547C78.4372 53.0547 79.2877 52.7086 79.9835 52.0164C80.7179 51.2858 81.1045 50.4207 81.1432 49.4209H81.3172ZM81.3172 17.4669H81.1432C81.1045 16.4671 80.7179 15.6211 79.9835 14.9291C79.2877 14.1984 78.4372 13.8332 77.432 13.8332C77.432 13.8332 77.2968 13.8332 77.0262 13.8332C76.7942 13.8332 76.6782 13.8332 76.6782 13.8332V13.2563H81.3172V17.4669ZM84.7383 49.4209H84.9123C84.9123 50.4207 85.2796 51.2858 86.014 52.0164C86.7485 52.7086 87.6183 53.0547 88.6235 53.0547C88.6235 53.0547 88.7394 53.0547 88.9713 53.0547C89.2033 53.0547 89.3192 53.0547 89.3192 53.0547V53.6314H84.7383V49.4209ZM151.007 36.7893L150.312 45.8449C149.306 47.4983 148.03 48.9787 146.484 50.286C144.976 51.555 143.179 52.574 141.091 53.3431C139.042 54.0736 136.685 54.4389 134.018 54.4389C129.997 54.4005 126.421 53.5161 123.29 51.7857C120.158 50.0554 117.704 47.6328 115.925 44.5182C114.186 41.3651 113.316 37.6545 113.316 33.3863C113.316 29.1949 114.186 25.5419 115.925 22.4272C117.665 19.2741 120.101 16.8325 123.232 15.1021C126.401 13.3333 130.113 12.4488 134.365 12.4488C137.226 12.4488 139.796 12.8334 142.077 13.6024C144.397 14.333 146.407 15.2559 148.108 16.3711L149.267 24.5037H148.745C147.895 21.1198 146.156 18.5628 143.527 16.8325C140.898 15.0636 137.844 14.1792 134.365 14.1792C130.964 14.1792 128.006 14.9867 125.493 16.6017C123.019 18.1783 121.086 20.4085 119.695 23.2925C118.342 26.138 117.665 29.4832 117.665 33.3285C117.665 37.1738 118.342 40.5384 119.695 43.4223C121.086 46.3063 123 48.5557 125.435 50.1707C127.909 51.7857 130.77 52.6317 134.018 52.7086C136.762 52.7086 139.294 52.2087 141.613 51.209C143.972 50.1707 145.944 48.4981 147.529 46.1908C149.114 43.8453 150.118 40.7114 150.544 36.7893H151.007Z" fill="#E5005C"/>
<path d="M53.1544 64.0741C52.6022 64.0741 52.0914 63.9745 51.6219 63.7754C51.1594 63.5763 50.7522 63.2981 50.4001 62.9411C50.0549 62.584 49.7857 62.1652 49.5924 61.6845C49.3991 61.2039 49.3025 60.6785 49.3025 60.1086C49.3025 59.5387 49.3957 59.0135 49.582 58.5328C49.7754 58.0453 50.0446 57.6263 50.3897 57.2761C50.7418 56.9191 51.1525 56.6445 51.6219 56.4522C52.0914 56.2531 52.6022 56.1536 53.1544 56.1536C53.7067 56.1536 54.2003 56.2462 54.6352 56.4316C55.077 56.617 55.4498 56.8643 55.7534 57.1732C56.0572 57.4754 56.2747 57.8083 56.4059 58.1723L55.1425 58.7593C54.9976 58.3749 54.7525 58.059 54.4073 57.8118C54.0622 57.5577 53.6445 57.4307 53.1544 57.4307C52.6712 57.4307 52.2432 57.544 51.8704 57.7706C51.5046 57.9971 51.218 58.3096 51.011 58.7078C50.8108 59.1062 50.7107 59.5731 50.7107 60.1086C50.7107 60.6443 50.8108 61.1146 51.011 61.5197C51.218 61.9179 51.5046 62.2304 51.8704 62.457C52.2432 62.6836 52.6712 62.7969 53.1544 62.7969C53.6445 62.7969 54.0622 62.6733 54.4073 62.4261C54.7525 62.172 54.9976 61.8527 55.1425 61.4682L56.4059 62.0553C56.2747 62.4192 56.0572 62.7557 55.7534 63.0647C55.4498 63.3669 55.077 63.6105 54.6352 63.796C54.2003 63.9813 53.7067 64.0741 53.1544 64.0741ZM61.2275 64.0741C60.6751 64.0741 60.1713 63.9471 59.7157 63.693C59.2669 63.4388 58.908 63.0921 58.6388 62.6527C58.3764 62.2132 58.2453 61.712 58.2453 61.1489C58.2453 60.5859 58.3764 60.0846 58.6388 59.6452C58.908 59.2057 59.2669 58.8589 59.7157 58.6049C60.1643 58.3508 60.6683 58.2238 61.2275 58.2238C61.7797 58.2238 62.2802 58.3508 62.7288 58.6049C63.1776 58.8589 63.5331 59.2057 63.7954 59.6452C64.0646 60.0777 64.1992 60.579 64.1992 61.1489C64.1992 61.712 64.0646 62.2132 63.7954 62.6527C63.5262 63.0921 63.1673 63.4388 62.7185 63.693C62.2698 63.9471 61.7728 64.0741 61.2275 64.0741ZM61.2275 62.838C61.5311 62.838 61.797 62.766 62.0247 62.6218C62.2595 62.4775 62.4424 62.2784 62.5736 62.0244C62.7116 61.7635 62.7806 61.4716 62.7806 61.1489C62.7806 60.8193 62.7116 60.5309 62.5736 60.2838C62.4424 60.0297 62.2595 59.8305 62.0247 59.6864C61.797 59.5353 61.5311 59.4597 61.2275 59.4597C60.9168 59.4597 60.6442 59.5353 60.4094 59.6864C60.1747 59.8305 59.9884 60.0297 59.8502 60.2838C59.7192 60.5309 59.6535 60.8193 59.6535 61.1489C59.6535 61.4716 59.7192 61.7635 59.8502 62.0244C59.9884 62.2784 60.1747 62.4775 60.4094 62.6218C60.6442 62.766 60.9168 62.838 61.2275 62.838ZM66.3669 63.9504V58.3473H67.6406V59.4494L67.537 59.2538C67.6682 58.9172 67.8822 58.6633 68.179 58.4916C68.4828 58.3131 68.8348 58.2238 69.2352 58.2238C69.6494 58.2238 70.0153 58.3131 70.3328 58.4916C70.6573 58.6701 70.9092 58.9207 71.0887 59.2435C71.2682 59.5593 71.3579 59.9266 71.3579 60.3456V63.9504H70.0014V60.6649C70.0014 60.4176 69.9531 60.2048 69.8564 60.0263C69.7598 59.8477 69.6252 59.7104 69.4527 59.6143C69.287 59.5112 69.0903 59.4597 68.8624 59.4597C68.6415 59.4597 68.4448 59.5112 68.2722 59.6143C68.0996 59.7104 67.965 59.8477 67.8684 60.0263C67.7718 60.2048 67.7235 60.4176 67.7235 60.6649V63.9504H66.3669ZM75.7874 64.0741C75.1868 64.0741 74.6622 63.9333 74.2134 63.6517C73.7717 63.3634 73.4679 62.9754 73.3023 62.4878L74.317 62.0038C74.4619 62.3196 74.6622 62.5669 74.9176 62.7454C75.1799 62.9239 75.4698 63.0132 75.7874 63.0132C76.0359 63.0132 76.2326 62.9582 76.3776 62.8483C76.5226 62.7385 76.595 62.5943 76.595 62.4158C76.595 62.306 76.5639 62.2167 76.5019 62.1479C76.4466 62.0725 76.3672 62.0106 76.2637 61.9626C76.1671 61.9076 76.0601 61.863 75.9427 61.8287L75.0211 61.5712C74.5448 61.4339 74.1824 61.2245 73.9339 60.9429C73.6923 60.6614 73.5715 60.3283 73.5715 59.9439C73.5715 59.6005 73.6577 59.3018 73.8303 59.0477C74.0098 58.7868 74.2549 58.5843 74.5655 58.4401C74.8831 58.2959 75.2455 58.2238 75.6528 58.2238C76.1843 58.2238 76.6537 58.3508 77.061 58.6049C77.4682 58.8589 77.7583 59.216 77.9307 59.6761L76.8953 60.1601C76.7987 59.9061 76.6364 59.7035 76.4087 59.5525C76.1808 59.4014 75.9255 59.3259 75.6424 59.3259C75.4146 59.3259 75.2352 59.3773 75.104 59.4803C74.9729 59.5834 74.9072 59.7172 74.9072 59.882C74.9072 59.9851 74.9348 60.0743 74.9901 60.1498C75.0452 60.2254 75.1212 60.2871 75.2178 60.3353C75.3214 60.3833 75.4387 60.4279 75.5699 60.4691L76.4708 60.7369C76.9333 60.8743 77.2888 61.0802 77.5374 61.3549C77.7927 61.6295 77.9205 61.9661 77.9205 62.3643C77.9205 62.7007 77.8307 62.9994 77.6512 63.2603C77.4717 63.5145 77.2232 63.7136 76.9056 63.8578C76.5881 64.0019 76.2154 64.0741 75.7874 64.0741ZM82.1107 64.0741C81.6759 64.0741 81.2961 63.978 80.9717 63.7857C80.6541 63.5934 80.4091 63.3256 80.2365 62.9823C80.0708 62.6389 79.9879 62.2373 79.9879 61.7771V58.3473H81.3444V61.6639C81.3444 61.8973 81.3893 62.1034 81.479 62.2819C81.5756 62.4536 81.7103 62.5909 81.8829 62.6939C82.0624 62.79 82.2625 62.838 82.4834 62.838C82.7043 62.838 82.9011 62.79 83.0737 62.6939C83.2462 62.5909 83.3809 62.4501 83.4775 62.2716C83.5742 62.0931 83.6225 61.8802 83.6225 61.633V58.3473H84.9789V63.9504H83.695V62.8483L83.8088 63.0441C83.6777 63.3875 83.4602 63.6449 83.1565 63.8166C82.8597 63.9882 82.511 64.0741 82.1107 64.0741ZM87.3788 63.9504V56.1536H88.7354V63.9504H87.3788ZM93.6947 64.0122C93.0597 64.0122 92.5662 63.8406 92.2141 63.4973C91.8689 63.1471 91.6963 62.6562 91.6963 62.0244V59.5525H90.723V58.3473H90.8266C91.1026 58.3473 91.3167 58.2753 91.4685 58.1311C91.6204 57.9868 91.6963 57.7774 91.6963 57.5028V57.0702H93.0528V58.3473H94.3472V59.5525H93.0528V61.9523C93.0528 62.1376 93.0838 62.2957 93.146 62.4261C93.215 62.5566 93.3186 62.6562 93.4566 62.7248C93.6016 62.7935 93.7846 62.8277 94.0055 62.8277C94.0538 62.8277 94.1089 62.8244 94.1711 62.8175C94.2401 62.8106 94.3058 62.8038 94.3679 62.7969V63.9504C94.2712 63.9642 94.1607 63.978 94.0364 63.9916C93.9123 64.0054 93.7983 64.0122 93.6947 64.0122ZM99.247 64.0741C98.6947 64.0741 98.1908 63.9471 97.7352 63.693C97.2865 63.4388 96.9275 63.0921 96.6584 62.6527C96.396 62.2132 96.2649 61.712 96.2649 61.1489C96.2649 60.5859 96.396 60.0846 96.6584 59.6452C96.9275 59.2057 97.2865 58.8589 97.7352 58.6049C98.1839 58.3508 98.6879 58.2238 99.247 58.2238C99.7993 58.2238 100.3 58.3508 100.748 58.6049C101.197 58.8589 101.553 59.2057 101.815 59.6452C102.084 60.0777 102.219 60.579 102.219 61.1489C102.219 61.712 102.084 62.2132 101.815 62.6527C101.546 63.0921 101.187 63.4388 100.738 63.693C100.289 63.9471 99.7923 64.0741 99.247 64.0741ZM99.247 62.838C99.5507 62.838 99.8165 62.766 100.044 62.6218C100.279 62.4775 100.462 62.2784 100.593 62.0244C100.731 61.7635 100.8 61.4716 100.8 61.1489C100.8 60.8193 100.731 60.5309 100.593 60.2838C100.462 60.0297 100.279 59.8305 100.044 59.6864C99.8165 59.5353 99.5507 59.4597 99.247 59.4597C98.9363 59.4597 98.6636 59.5353 98.429 59.6864C98.1943 59.8305 98.0079 60.0297 97.8698 60.2838C97.7386 60.5309 97.6731 60.8193 97.6731 61.1489C97.6731 61.4716 97.7386 61.7635 97.8698 62.0244C98.0079 62.2784 98.1943 62.4775 98.429 62.6218C98.6636 62.766 98.9363 62.838 99.247 62.838ZM104.386 63.9504V58.3473H105.66V59.5937L105.557 59.4082C105.688 58.9894 105.891 58.6975 106.167 58.5328C106.451 58.3679 106.789 58.2856 107.182 58.2856H107.514V59.4803H107.027C106.64 59.4803 106.33 59.6005 106.095 59.8408C105.86 60.0743 105.743 60.4039 105.743 60.8296V63.9504H104.386ZM109.398 63.9504V58.3473H110.755V63.9504H109.398ZM109.398 57.7191V56.2771H110.755V57.7191H109.398ZM114.855 64.0741C114.461 64.0741 114.12 64.0088 113.83 63.8783C113.54 63.7478 113.315 63.5625 113.157 63.3222C112.998 63.075 112.919 62.79 112.919 62.4673C112.919 62.1582 112.988 61.8836 113.126 61.6433C113.264 61.3962 113.478 61.1901 113.768 61.0254C114.058 60.8605 114.423 60.7438 114.865 60.6752L116.708 60.3765V61.4065L115.124 61.6742C114.855 61.7223 114.655 61.808 114.523 61.9317C114.392 62.0553 114.327 62.2167 114.327 62.4158C114.327 62.608 114.399 62.7625 114.544 62.8792C114.696 62.9891 114.883 63.0441 115.103 63.0441C115.386 63.0441 115.635 62.9857 115.849 62.8689C116.07 62.7454 116.239 62.5772 116.356 62.3643C116.481 62.1514 116.543 61.9179 116.543 61.6639V60.2219C116.543 59.9816 116.446 59.7825 116.253 59.6246C116.066 59.4597 115.818 59.3773 115.507 59.3773C115.217 59.3773 114.958 59.4564 114.731 59.6143C114.51 59.7654 114.348 59.9678 114.244 60.2219L113.136 59.6864C113.246 59.3911 113.419 59.137 113.654 58.9242C113.895 58.7045 114.178 58.5328 114.503 58.4092C114.827 58.2856 115.179 58.2238 115.559 58.2238C116.021 58.2238 116.429 58.3096 116.781 58.4813C117.133 58.6461 117.406 58.8795 117.599 59.1817C117.799 59.4769 117.899 59.8237 117.899 60.2219V63.9504H116.615V62.9926L116.905 62.972C116.76 63.2123 116.588 63.4149 116.387 63.5796C116.187 63.7376 115.959 63.8612 115.704 63.9504C115.448 64.0328 115.166 64.0741 114.855 64.0741ZM125.943 64.0741C125.363 64.0741 124.856 63.9436 124.421 63.6827C123.986 63.4217 123.647 63.0681 123.406 62.6218C123.164 62.1755 123.043 61.6811 123.043 61.1386C123.043 60.5756 123.164 60.0777 123.406 59.6452C123.654 59.2057 123.989 58.8589 124.41 58.6049C124.839 58.3508 125.314 58.2238 125.84 58.2238C126.281 58.2238 126.668 58.2959 126.999 58.4401C127.337 58.5843 127.624 58.7834 127.859 59.0374C128.093 59.2915 128.273 59.5834 128.397 59.913C128.522 60.2357 128.583 60.5859 128.583 60.9635C128.583 61.0596 128.576 61.1592 128.563 61.2622C128.555 61.3653 128.539 61.4545 128.51 61.53H124.162V60.5H127.744L127.103 60.9841C127.165 60.6682 127.147 60.3867 127.05 60.1395C126.962 59.8924 126.809 59.6966 126.595 59.5525C126.387 59.4082 126.137 59.3362 125.84 59.3362C125.556 59.3362 125.304 59.4082 125.083 59.5525C124.862 59.6898 124.693 59.8958 124.576 60.1704C124.466 60.4382 124.424 60.7644 124.452 61.1489C124.424 61.4922 124.469 61.7977 124.586 62.0656C124.711 62.3266 124.89 62.529 125.124 62.6733C125.367 62.8175 125.642 62.8895 125.953 62.8895C126.264 62.8895 126.526 62.8244 126.741 62.6939C126.962 62.5634 127.134 62.3883 127.257 62.1685L128.356 62.7042C128.244 62.972 128.072 63.2088 127.838 63.4149C127.603 63.6208 127.323 63.7822 126.999 63.8989C126.682 64.0157 126.329 64.0741 125.943 64.0741ZM130.75 63.9504V58.3473H132.025V59.6452L131.879 59.4288C131.982 59.0238 132.189 58.7216 132.5 58.5225C132.811 58.3234 133.177 58.2238 133.598 58.2238C134.06 58.2238 134.468 58.344 134.82 58.5843C135.172 58.8246 135.399 59.1404 135.503 59.5319L135.12 59.5628C135.293 59.1164 135.552 58.7834 135.897 58.5637C136.242 58.337 136.639 58.2238 137.088 58.2238C137.488 58.2238 137.844 58.3131 138.154 58.4916C138.472 58.6701 138.72 58.9207 138.9 59.2435C139.08 59.5593 139.169 59.9266 139.169 60.3456V63.9504H137.813V60.6649C137.813 60.4176 137.768 60.2048 137.678 60.0263C137.588 59.8477 137.463 59.7104 137.305 59.6143C137.146 59.5112 136.953 59.4597 136.725 59.4597C136.511 59.4597 136.322 59.5112 136.156 59.6143C135.99 59.7104 135.862 59.8477 135.772 60.0263C135.683 60.2048 135.638 60.4176 135.638 60.6649V63.9504H134.281V60.6649C134.281 60.4176 134.236 60.2048 134.146 60.0263C134.058 59.8477 133.929 59.7104 133.764 59.6143C133.605 59.5112 133.415 59.4597 133.194 59.4597C132.981 59.4597 132.791 59.5112 132.625 59.6143C132.459 59.7104 132.332 59.8477 132.242 60.0263C132.152 60.2048 132.107 60.4176 132.107 60.6649V63.9504H130.75ZM145.916 63.9504V57.5131H143.917V56.2771H149.302V57.5131H147.334V63.9504H145.916ZM151.3 63.9504V56.2771H152.708V63.9504H151.3Z" fill="white"/>
<path d="M31.7549 19.8754C32.4501 21.8081 33.8063 22.896 35.2368 23.054V24.4893C30.0285 24.6259 25.8488 28.8662 25.8488 34.0797C25.8488 39.2933 30.0285 43.5325 35.2368 43.6689V44.6085C33.7303 44.7097 32.315 45.8286 31.7304 48.0065L28.3459 46.5639C28.9691 44.1775 28.7089 42.4066 27.6257 41.4407C26.5537 40.4852 24.7968 40.4262 22.6739 41.1668L21.4637 37.7954C23.5717 36.9418 24.709 35.5498 24.7093 34.0458C24.7093 32.5434 23.574 31.0809 21.4601 30.0986L22.6836 26.6922C23.7108 26.9335 24.6421 27.057 25.4527 27.0279C26.3227 26.9967 27.0711 26.7905 27.6452 26.3526C28.779 25.488 29.1069 23.8319 28.6093 21.3192L31.7549 19.8754Z" fill="white" stroke="white" stroke-width="0.414852"/>
<path d="M14.8727 26.4734C10.9897 58.4027 19.0145 71.2774 45.419 61.4927C23.6742 56.0853 18.4969 45.7855 14.8727 26.4734Z" fill="#E5005C"/>
<path d="M26.5216 9.99384C2.96465 21.0661 -10.2376 35.2283 14.6137 55.5704C6.32998 29.5634 15.6492 21.581 26.5216 9.99384Z" fill="#E5005C"/>
<path d="M44.3836 10.7664C19.2734 -4.42582 7.10665 -2.36591 2.7059 23.6411C17.2024 7.67638 24.4508 4.07145 44.3836 10.7664Z" fill="#E5005C"/>
<path d="M14.8727 26.4734C10.9897 58.4027 19.0145 71.2774 45.419 61.4927C23.6742 56.0853 18.4969 45.7855 14.8727 26.4734Z" stroke="#E5005C" stroke-width="0.207426"/>
<path d="M26.5216 9.99384C2.96465 21.0661 -10.2376 35.2283 14.6137 55.5704C6.32998 29.5634 15.6492 21.581 26.5216 9.99384Z" stroke="#E5005C" stroke-width="0.207426"/>
<path d="M44.3836 10.7664C19.2734 -4.42582 7.10665 -2.36591 2.7059 23.6411C17.2024 7.67638 24.4508 4.07145 44.3836 10.7664Z" stroke="#E5005C" stroke-width="0.207426"/>
</svg>
