<svg width="24" height="24" viewBox="0 0 24 24" fill="none" xmlns="http://www.w3.org/2000/svg">
<path d="M12.0242 2.94165V2.94263L21.0242 6.69263C21.0368 6.69792 21.0476 6.70711 21.0544 6.71899L21.0623 6.75806L19.5623 18.0081C19.5609 18.0181 19.5574 18.0281 19.5515 18.0364L19.5281 18.0559L12.0281 21.8059C12.0194 21.8102 12.0094 21.8127 11.9998 21.8127C11.9902 21.8127 11.981 21.8101 11.9724 21.8059L4.47241 18.0559H4.47144C4.46247 18.0514 4.45483 18.0446 4.44897 18.0364L4.43823 18.0081L2.93823 6.75806C2.93642 6.74443 2.93919 6.73091 2.94604 6.71899C2.95281 6.70722 2.96286 6.69795 2.97534 6.69263L11.9753 2.94263L11.9744 2.94165C11.9902 2.93535 12.0083 2.93567 12.0242 2.94165ZM11.8074 3.14771L3.41968 6.64185L3.06616 6.78931L3.11694 7.16919L4.52319 17.6965L4.55835 17.9592L4.79468 18.0774L11.7761 21.5686L11.9998 21.6799L12.2234 21.5686L19.2048 18.0774L19.4421 17.9592L19.4773 17.6965L20.8806 7.16919L20.9314 6.78931L20.5769 6.64185L12.1921 3.14771L11.9998 3.06763L11.8074 3.14771ZM11.9988 8.18677C12.0099 8.18677 12.0214 8.18989 12.031 8.19556C12.0405 8.20116 12.0481 8.2094 12.0535 8.21899L12.0544 8.21997L15.8035 14.968V14.969C15.8115 14.9835 15.8139 15.0009 15.8093 15.0168C15.8047 15.0327 15.7935 15.0459 15.7791 15.054L15.7761 15.0559C15.7684 15.0603 15.7596 15.0628 15.7507 15.0627H15.7498C15.7386 15.0627 15.7271 15.0596 15.7175 15.054L15.6951 15.0305L14.6062 13.0696L14.4636 12.8127H9.53687L9.39331 13.0696L8.30542 15.0266L8.30444 15.0276C8.29637 15.0421 8.28327 15.0533 8.26733 15.0579C8.25135 15.0624 8.23402 15.0601 8.21948 15.052C8.20505 15.044 8.19382 15.0307 8.18921 15.0149C8.18695 15.007 8.1864 14.9985 8.18726 14.9905L8.19507 14.967L11.9441 8.21899C11.9495 8.20927 11.9579 8.20121 11.9675 8.19556C11.977 8.19002 11.9878 8.18681 11.9988 8.18677ZM11.5632 9.16528L10.0193 11.9446L9.6062 12.6877H14.3933L13.9812 11.9446L12.4373 9.16528L11.9998 8.37817L11.5632 9.16528Z" fill="white" stroke="#E5005C"/>
</svg>
