<svg width="24" height="24" viewBox="0 0 24 24" fill="none" xmlns="http://www.w3.org/2000/svg">
<path d="M9.00098 13.4373C9.01168 13.4374 9.02199 13.4407 9.03125 13.446C9.04062 13.4516 9.04929 13.4591 9.05469 13.4685C9.06008 13.4779 9.0625 13.4889 9.0625 13.4998V20.9998C9.0625 21.0163 9.05567 21.033 9.04395 21.0447C9.03226 21.0562 9.01641 21.0623 9 21.0623C8.98359 21.0623 8.96774 21.0562 8.95605 21.0447C8.94433 21.033 8.9375 21.0163 8.9375 20.9998V13.6062L8.19434 14.0193L6.78027 14.8044L6.76953 14.8113C6.7624 14.8154 6.75427 14.818 6.74609 14.8191C6.73792 14.8202 6.72963 14.8193 6.72168 14.8171C6.71368 14.815 6.70575 14.8115 6.69922 14.8064C6.69266 14.8013 6.68764 14.7942 6.68359 14.7869C6.67959 14.7796 6.67667 14.7717 6.67578 14.7634C6.67492 14.7552 6.67539 14.7469 6.67773 14.739C6.68008 14.7312 6.68429 14.7239 6.68945 14.7175C6.69474 14.7111 6.70164 14.7058 6.70898 14.7019L6.71973 14.6951L8.96973 13.4451C8.97923 13.4398 8.99011 13.4371 9.00098 13.4373ZM15.5625 13.4373C16.4786 13.4373 17.2237 13.8416 17.7461 14.6375V14.6384C18.1807 15.3004 18.4375 16.2214 18.4375 17.2498C18.4375 18.1499 18.2409 18.9683 17.9004 19.6023L17.7461 19.8621C17.2237 20.6581 16.4786 21.0623 15.5625 21.0623C14.6451 21.0623 13.9015 20.6618 13.3799 19.863L13.3789 19.8621L13.2246 19.6023C12.8841 18.9683 12.6875 18.1499 12.6875 17.2498C12.6875 16.2214 12.9443 15.3004 13.3789 14.6384V14.6375C13.9013 13.8416 14.6464 13.4373 15.5625 13.4373ZM15.5625 13.5623C14.4385 13.5623 13.729 14.2161 13.3281 14.9802C12.9384 15.7233 12.8125 16.6072 12.8125 17.2498C12.8125 17.8924 12.9382 18.777 13.3281 19.5203C13.729 20.2844 14.4385 20.9373 15.5625 20.9373C16.6884 20.9373 17.3982 20.285 17.7988 19.5203C18.1882 18.7768 18.3125 17.8918 18.3125 17.2498C18.3125 16.6072 18.1866 15.7233 17.7969 14.9802C17.396 14.2161 16.6865 13.5623 15.5625 13.5623ZM8.8125 2.93726C9.72856 2.93726 10.4737 3.34158 10.9961 4.13745V4.13843C11.4307 4.80038 11.6875 5.72144 11.6875 6.74976C11.6875 7.64995 11.4909 8.4683 11.1504 9.10229L10.9961 9.36206C10.4737 10.1581 9.72864 10.5623 8.8125 10.5623C7.95353 10.5623 7.24516 10.207 6.72949 9.50659L6.62891 9.36206C6.19418 8.70016 5.9375 7.77477 5.9375 6.74976C5.93755 5.725 6.19434 4.80025 6.62891 4.13843V4.13745C7.15131 3.34158 7.89644 2.93726 8.8125 2.93726ZM16.501 2.93726C16.5117 2.93742 16.522 2.94066 16.5312 2.94604C16.5406 2.95157 16.5493 2.95906 16.5547 2.96851C16.5601 2.97795 16.5625 2.98889 16.5625 2.99976V10.4998C16.5625 10.5163 16.5557 10.533 16.5439 10.5447C16.5323 10.5562 16.5164 10.5623 16.5 10.5623C16.4836 10.5623 16.4677 10.5562 16.4561 10.5447C16.4443 10.533 16.4375 10.5163 16.4375 10.4998V3.1062L15.6943 3.51929L14.2803 4.30444C14.2732 4.3084 14.2649 4.3113 14.2568 4.31226C14.2487 4.31319 14.2403 4.31254 14.2324 4.3103C14.2247 4.30809 14.2173 4.30453 14.2109 4.29956C14.2046 4.29457 14.1993 4.28798 14.1953 4.28101C14.1913 4.27383 14.1884 4.26573 14.1875 4.25757C14.1866 4.24944 14.1872 4.24103 14.1895 4.23315C14.1917 4.22531 14.1961 4.21806 14.2012 4.21167C14.2063 4.20532 14.2126 4.19998 14.2197 4.19604V4.19507L16.4697 2.94507C16.4792 2.93981 16.4901 2.93711 16.501 2.93726ZM8.8125 3.06226C7.68655 3.06226 6.97674 3.71541 6.57617 4.48022C6.18689 5.22357 6.06254 6.10776 6.0625 6.74976C6.0625 7.39181 6.18677 8.27678 6.57617 9.02026C6.97676 9.785 7.68665 10.4373 8.8125 10.4373C9.93835 10.4373 10.6482 9.785 11.0488 9.02026C11.4382 8.27678 11.5625 7.39181 11.5625 6.74976C11.5625 6.10776 11.4381 5.22357 11.0488 4.48022C10.6483 3.71541 9.93845 3.06226 8.8125 3.06226Z" fill="white" stroke="#E5005C"/>
</svg>
