<svg width="25" height="24" viewBox="0 0 25 24" fill="none" xmlns="http://www.w3.org/2000/svg">
<path d="M4.25 4.4375H20.75C20.9655 4.4375 21.1718 4.52341 21.3242 4.67578C21.4766 4.82815 21.5625 5.03451 21.5625 5.25V18.75C21.5625 18.9655 21.4766 19.1718 21.3242 19.3242C21.1718 19.4766 20.9655 19.5625 20.75 19.5625H14.9951C14.9834 19.5625 14.9718 19.5589 14.9619 19.5527H14.9609C14.9511 19.5464 14.9435 19.5369 14.9385 19.5264H14.9375C14.5171 18.639 13.8541 17.8884 13.0244 17.3633C12.2982 16.9037 11.4707 16.6328 10.6172 16.5723L10.25 16.5596C9.26778 16.5596 8.30554 16.838 7.47559 17.3633C6.64575 17.8885 5.9819 18.6388 5.56152 19.5264C5.55652 19.5369 5.54888 19.5464 5.53906 19.5527H5.53809C5.52817 19.5589 5.51659 19.5625 5.50488 19.5625H4.25C4.03451 19.5625 3.82815 19.4766 3.67578 19.3242C3.52341 19.1718 3.4375 18.9655 3.4375 18.75V5.25C3.4375 5.03451 3.52341 4.82815 3.67578 4.67578C3.82815 4.52341 4.03451 4.4375 4.25 4.4375ZM4.25 4.5625C4.06767 4.5625 3.8926 4.63474 3.76367 4.76367C3.63474 4.8926 3.5625 5.06767 3.5625 5.25V18.75C3.5625 18.9323 3.63474 19.1074 3.76367 19.2363C3.8926 19.3653 4.06766 19.4375 4.25 19.4375H5.45605L5.59863 19.1807C6.19841 18.1041 7.15227 17.2677 8.29785 16.8135L9.12793 16.4844L8.41309 15.9492C7.89869 15.5637 7.51897 15.0257 7.32715 14.4121C7.13534 13.7986 7.14155 13.1401 7.34473 12.5303C7.54793 11.9205 7.93756 11.3896 8.45898 11.0137C8.98044 10.6378 9.60719 10.4355 10.25 10.4355C10.8928 10.4355 11.5196 10.6378 12.041 11.0137C12.5624 11.3896 12.9521 11.9205 13.1553 12.5303C13.3585 13.1401 13.3647 13.7986 13.1729 14.4121C12.981 15.0257 12.6013 15.5637 12.0869 15.9492L11.3721 16.4844L12.2021 16.8135C13.3477 17.2677 14.3016 18.1041 14.9014 19.1807L15.0439 19.4375H20.75C20.9323 19.4375 21.1074 19.3653 21.2363 19.2363C21.3653 19.1074 21.4375 18.9323 21.4375 18.75V5.25C21.4375 5.11318 21.3971 4.98032 21.3223 4.86816L21.2363 4.76367L21.1318 4.67773C21.0197 4.6029 20.8868 4.5625 20.75 4.5625H4.25ZM6.5 7.4375H18.5C18.5166 7.4375 18.5322 7.44433 18.5439 7.45605C18.5557 7.46778 18.5625 7.48342 18.5625 7.5V16.5C18.5625 16.5166 18.5557 16.5322 18.5439 16.5439C18.5322 16.5557 18.5166 16.5625 18.5 16.5625H17C16.9834 16.5625 16.9678 16.5557 16.9561 16.5439C16.9443 16.5322 16.9375 16.5166 16.9375 16.5C16.9375 16.4834 16.9443 16.4678 16.9561 16.4561C16.9678 16.4443 16.9834 16.4375 17 16.4375H18.4375V7.5625H6.5625V9C6.5625 9.01658 6.55567 9.03222 6.54395 9.04395C6.53222 9.05567 6.51657 9.0625 6.5 9.0625C6.48342 9.0625 6.46778 9.05567 6.45605 9.04395C6.44433 9.03223 6.4375 9.01658 6.4375 9V7.5C6.4375 7.48342 6.44433 7.46778 6.45605 7.45605C6.46778 7.44433 6.48342 7.4375 6.5 7.4375ZM10.8232 10.6191C10.2535 10.5058 9.66271 10.5638 9.12598 10.7861C8.58922 11.0085 8.13039 11.3851 7.80762 11.8682C7.48487 12.3512 7.3125 12.919 7.3125 13.5C7.3125 14.2791 7.62196 15.0263 8.17285 15.5771C8.72374 16.128 9.47093 16.4375 10.25 16.4375C10.831 16.4375 11.3988 16.2651 11.8818 15.9424C12.3649 15.6196 12.7415 15.1608 12.9639 14.624C13.1862 14.0873 13.2442 13.4965 13.1309 12.9268C13.0175 12.357 12.7379 11.8336 12.3271 11.4229C11.9164 11.0121 11.393 10.7325 10.8232 10.6191Z" fill="#D9D9D9" stroke="#E5005C"/>
</svg>
