<svg width="24" height="24" viewBox="0 0 24 24" fill="none" xmlns="http://www.w3.org/2000/svg">
<path d="M14.998 3.69043C15.006 3.69011 15.0139 3.69164 15.0215 3.69434L15.0322 3.69824C15.0355 3.70027 15.0391 3.7015 15.042 3.7041C15.048 3.70965 15.0532 3.7162 15.0566 3.72363C15.0601 3.73101 15.0621 3.73894 15.0625 3.74707C15.0629 3.75527 15.0614 3.76377 15.0586 3.77148L9.05859 20.2715C9.05425 20.2833 9.04643 20.2935 9.03613 20.3008C9.02615 20.3078 9.01411 20.3112 9.00195 20.3115C8.99492 20.3111 8.9881 20.31 8.98145 20.3076H8.98047C8.9652 20.302 8.95237 20.291 8.94531 20.2764C8.93821 20.2615 8.9369 20.2431 8.94238 20.2275L14.9414 3.7334V3.73145C14.9442 3.72385 14.9487 3.71693 14.9541 3.71094C14.9596 3.70492 14.9663 3.69977 14.9736 3.69629C14.9811 3.6928 14.9898 3.6908 14.998 3.69043ZM6.00195 8.19043C6.01837 8.19199 6.03437 8.20022 6.04492 8.21289C6.05537 8.22553 6.06002 8.24244 6.05859 8.25879C6.05709 8.27459 6.04899 8.28833 6.03711 8.29883L2.05859 11.6162L1.59766 12L2.05859 12.3838L6.04004 15.7021L6.04297 15.7041C6.04935 15.7093 6.05472 15.7164 6.05859 15.7236C6.06244 15.7309 6.06465 15.7389 6.06543 15.7471C6.0662 15.7553 6.06591 15.7636 6.06348 15.7715C6.06105 15.7793 6.05699 15.7867 6.05176 15.793C6.04648 15.7993 6.03954 15.8048 6.03223 15.8086C6.02498 15.8123 6.01691 15.8147 6.00879 15.8154C6.0006 15.8161 5.99221 15.815 5.98438 15.8125C5.97655 15.81 5.96916 15.8061 5.96289 15.8008L5.95996 15.7979L1.45996 12.0479C1.45297 12.042 1.44723 12.0346 1.44336 12.0264C1.43952 12.0181 1.4375 12.0091 1.4375 12C1.4375 11.9909 1.43951 11.9819 1.44336 11.9736C1.44723 11.9654 1.45296 11.958 1.45996 11.9521L5.95801 8.20312C5.97042 8.19352 5.98629 8.18907 6.00195 8.19043ZM17.9912 8.18457C17.9994 8.18388 18.0078 8.18502 18.0156 8.1875C18.0234 8.19 18.0308 8.19392 18.0371 8.19922L18.04 8.20215L22.54 11.9521C22.547 11.958 22.5528 11.9654 22.5566 11.9736C22.5605 11.9819 22.5625 11.9909 22.5625 12C22.5625 12.0091 22.5605 12.0181 22.5566 12.0264C22.5528 12.0346 22.547 12.042 22.54 12.0479L18.04 15.7979L18.0371 15.8008C18.0308 15.8061 18.0234 15.81 18.0156 15.8125C18.0078 15.815 17.9994 15.8161 17.9912 15.8154C17.9831 15.8147 17.975 15.8123 17.9678 15.8086C17.9605 15.8048 17.9535 15.7993 17.9482 15.793C17.943 15.7867 17.939 15.7793 17.9365 15.7715C17.9341 15.7636 17.9338 15.7553 17.9346 15.7471C17.9353 15.7389 17.9375 15.7309 17.9414 15.7236C17.9453 15.7164 17.9507 15.7093 17.957 15.7041L17.96 15.7021L21.9414 12.3838L22.4023 12L21.9414 11.6162L17.96 8.29785L17.957 8.2959L17.9414 8.27637C17.9376 8.26911 17.9353 8.2611 17.9346 8.25293C17.9338 8.24475 17.9341 8.23636 17.9365 8.22852C17.939 8.22069 17.943 8.21334 17.9482 8.20703C17.9535 8.20069 17.9605 8.19523 17.9678 8.19141C17.975 8.18768 17.9831 8.18528 17.9912 8.18457Z" fill="white" stroke="#E5005C"/>
</svg>
