<svg width="24" height="24" viewBox="0 0 24 24" fill="none" xmlns="http://www.w3.org/2000/svg">
<path d="M16.4995 4.43726H18.7495C18.965 4.43726 19.1723 4.52316 19.3247 4.67554C19.477 4.82782 19.5619 5.03443 19.562 5.24976V18.7498C19.562 18.9652 19.4771 19.1726 19.3247 19.325C19.1723 19.4773 18.965 19.5623 18.7495 19.5623H5.24951C5.03423 19.5621 4.82755 19.4772 4.67529 19.325C4.52292 19.1726 4.43701 18.9652 4.43701 18.7498V12.7498C4.43711 12.7333 4.44397 12.7174 4.45557 12.7058C4.46717 12.6942 4.48311 12.6874 4.49951 12.6873C4.51609 12.6873 4.53271 12.6941 4.54443 12.7058C4.55603 12.7174 4.56192 12.7333 4.56201 12.7498V18.7498C4.56201 18.9321 4.63522 19.1072 4.76416 19.2361C4.89297 19.3649 5.06738 19.4371 5.24951 19.4373H18.7495C18.9318 19.4373 19.1069 19.365 19.2358 19.2361C19.3648 19.1071 19.437 18.9321 19.437 18.7498V5.24976C19.4369 5.11315 19.3965 4.98091 19.3218 4.8689L19.2358 4.7644L19.1313 4.67847C19.0192 4.60365 18.8863 4.56226 18.7495 4.56226H16.4995C16.4831 4.56213 16.4672 4.55624 16.4556 4.54468C16.4438 4.53296 16.437 4.51633 16.437 4.49976C16.4371 4.48333 16.444 4.46744 16.4556 4.45581C16.4672 4.4442 16.4831 4.43738 16.4995 4.43726ZM6.01318 2.92358C6.02149 2.92347 6.0299 2.92536 6.0376 2.92847C6.04528 2.93161 6.05224 2.93627 6.05811 2.94214C6.06398 2.94804 6.06865 2.95493 6.07178 2.96265C6.0749 2.97039 6.07679 2.97871 6.07666 2.98706C6.07651 2.99545 6.07422 3.00381 6.0708 3.01147C6.06739 3.01911 6.06227 3.02628 6.05615 3.03198L6.05029 3.03784L6.04346 3.0437L3.44189 5.64624L3.08936 5.99976L3.44189 6.35327L6.04346 8.95581L6.05615 8.96851C6.06229 8.97423 6.06739 8.98135 6.0708 8.98901C6.07418 8.99664 6.07651 9.00508 6.07666 9.01343C6.07675 9.02169 6.07487 9.03018 6.07178 9.03784C6.06864 9.0455 6.06396 9.05249 6.05811 9.05835C6.05223 9.06421 6.04529 9.06889 6.0376 9.07202C6.0299 9.07513 6.02148 9.07702 6.01318 9.0769C6.00482 9.07676 5.99641 9.07444 5.98877 9.07104C5.9811 9.06763 5.97399 9.06254 5.96826 9.0564L2.95557 6.0437C2.94426 6.03205 2.93799 6.01602 2.93799 5.99976C2.93808 5.98332 2.94492 5.96745 2.95654 5.95581L2.95557 5.95483L5.95557 2.95581L5.9624 2.94995L5.96826 2.94312C5.97395 2.93706 5.98118 2.93283 5.98877 2.92944C5.99644 2.92603 6.00479 2.92373 6.01318 2.92358ZM9.73682 2.92358C9.74521 2.92373 9.75356 2.92603 9.76123 2.92944C9.76882 2.93283 9.77605 2.93706 9.78174 2.94312L9.7876 2.94995L12.7935 5.95581C12.8051 5.96744 12.8119 5.98332 12.812 5.99976C12.812 6.01624 12.8051 6.032 12.7935 6.0437L9.79346 9.0437C9.78177 9.05523 9.76594 9.06226 9.74951 9.06226C9.73312 9.06213 9.71717 9.05529 9.70557 9.0437C9.69426 9.03205 9.68799 9.01602 9.68799 8.99976C9.68808 8.98332 9.69492 8.96745 9.70654 8.95581L12.3081 6.35327L12.6606 5.99976L12.3081 5.64624L9.70654 3.0437L9.69287 3.03198L9.6792 3.01147C9.67578 3.00381 9.67349 2.99545 9.67334 2.98706C9.67321 2.97871 9.6751 2.97039 9.67822 2.96265C9.68135 2.95493 9.68601 2.94804 9.69189 2.94214C9.69777 2.93627 9.70472 2.93161 9.7124 2.92847C9.72011 2.92535 9.72851 2.92347 9.73682 2.92358Z" fill="white" stroke="#E5005C"/>
</svg>
