<svg width="24" height="24" viewBox="0 0 24 24" fill="none" xmlns="http://www.w3.org/2000/svg">
<path d="M12 2.9375C14.4023 2.9375 16.516 3.47918 18.0107 4.33789C19.5148 5.20205 20.3125 6.33135 20.3125 7.5V16.5C20.3125 17.6686 19.5148 18.798 18.0107 19.6621C16.516 20.5208 14.4023 21.0625 12 21.0625C9.59773 21.0625 7.48405 20.5208 5.98926 19.6621C4.4852 18.798 3.6875 17.6686 3.6875 16.5V7.5C3.6875 6.33135 4.4852 5.20205 5.98926 4.33789C7.48405 3.47918 9.59773 2.9375 12 2.9375ZM19.3301 14.1621C17.9574 15.5666 15.2621 16.5625 12 16.5625C8.73786 16.5625 6.04262 15.5666 4.66992 14.1621L3.8125 13.2852V16.5C3.8125 17.8579 4.91521 18.9711 6.36523 19.7139C7.84803 20.4733 9.85087 20.9375 12 20.9375C14.1491 20.9375 16.152 20.4733 17.6348 19.7139C19.0848 18.9711 20.1875 17.8579 20.1875 16.5V13.2852L19.3301 14.1621ZM19.3301 9.66211C17.9574 11.0666 15.2621 12.0625 12 12.0625C8.73786 12.0625 6.04262 11.0666 4.66992 9.66211L3.8125 8.78516V12C3.8125 13.3579 4.91521 14.4711 6.36523 15.2139C7.84803 15.9733 9.85087 16.4375 12 16.4375C14.1491 16.4375 16.152 15.9733 17.6348 15.2139C19.0848 14.4711 20.1875 13.3579 20.1875 12V8.78516L19.3301 9.66211ZM12 3.0625C9.85087 3.0625 7.84803 3.52669 6.36523 4.28613C4.91521 5.02891 3.8125 6.14206 3.8125 7.5C3.8125 8.85794 4.91521 9.97109 6.36523 10.7139C7.84803 11.4733 9.85087 11.9375 12 11.9375C14.1491 11.9375 16.152 11.4733 17.6348 10.7139C19.0848 9.97109 20.1875 8.85794 20.1875 7.5C20.1875 6.14206 19.0848 5.02891 17.6348 4.28613C16.152 3.52669 14.1491 3.0625 12 3.0625Z" fill="white" stroke="#E5005C"/>
</svg>
