<svg width="24" height="24" viewBox="0 0 24 24" fill="none" xmlns="http://www.w3.org/2000/svg">
<path d="M14.25 3.6875H21.75C21.9655 3.6875 22.1718 3.77341 22.3242 3.92578C22.4766 4.07815 22.5625 4.28451 22.5625 4.5V19.5C22.5625 19.7155 22.4766 19.9218 22.3242 20.0742C22.1718 20.2266 21.9655 20.3125 21.75 20.3125H14.25C14.0345 20.3125 13.8282 20.2266 13.6758 20.0742C13.5234 19.9218 13.4375 19.7155 13.4375 19.5V17.3125H8.3125V20.1875H10.5C10.5166 20.1875 10.5322 20.1943 10.5439 20.2061C10.5557 20.2178 10.5625 20.2334 10.5625 20.25C10.5625 20.2666 10.5557 20.2822 10.5439 20.2939C10.5322 20.3057 10.5166 20.3125 10.5 20.3125H6C5.98342 20.3125 5.96778 20.3057 5.95605 20.2939C5.94434 20.2822 5.9375 20.2666 5.9375 20.25C5.9375 20.2334 5.94434 20.2178 5.95605 20.2061C5.96778 20.1943 5.98342 20.1875 6 20.1875H8.1875V17.3125H3C2.5856 17.3125 2.18853 17.1475 1.89551 16.8545C1.60248 16.5615 1.4375 16.1644 1.4375 15.75V9C1.4375 8.5856 1.60248 8.18853 1.89551 7.89551C2.18853 7.60248 2.5856 7.4375 3 7.4375H13.4375V4.5C13.4375 4.28451 13.5234 4.07815 13.6758 3.92578C13.8282 3.77341 14.0345 3.6875 14.25 3.6875ZM14.25 3.8125C14.0677 3.8125 13.8926 3.88474 13.7637 4.01367C13.6347 4.1426 13.5625 4.31766 13.5625 4.5V19.5C13.5625 19.6823 13.6347 19.8574 13.7637 19.9863C13.8926 20.1153 14.0677 20.1875 14.25 20.1875H21.75C21.9323 20.1875 22.1074 20.1152 22.2363 19.9863C22.3652 19.8574 22.4375 19.6823 22.4375 19.5V4.5C22.4375 4.36318 22.3971 4.23032 22.3223 4.11816L22.2363 4.01367L22.1318 3.92773C22.0197 3.8529 21.8868 3.8125 21.75 3.8125H14.25ZM18 16.4375C18.116 16.4375 18.2275 16.4834 18.3096 16.5654C18.3916 16.6475 18.4375 16.759 18.4375 16.875C18.4375 16.9615 18.4114 17.0462 18.3633 17.1182C18.3152 17.19 18.2468 17.2462 18.167 17.2793C18.0873 17.3122 17.9997 17.3205 17.915 17.3037C17.8302 17.2868 17.7516 17.2458 17.6904 17.1846C17.6292 17.1234 17.5882 17.0448 17.5713 16.96C17.5545 16.8753 17.5628 16.7878 17.5957 16.708C17.6288 16.6282 17.685 16.5598 17.7568 16.5117C17.8288 16.4636 17.9135 16.4375 18 16.4375ZM3 7.5625C2.61875 7.5625 2.25298 7.71381 1.9834 7.9834C1.71381 8.25298 1.5625 8.61875 1.5625 9V15.75C1.5625 16.1312 1.71381 16.497 1.9834 16.7666C2.25298 17.0362 2.61875 17.1875 3 17.1875H13.4375V7.5625H3ZM16.5 9.6875H19.5C19.5166 9.6875 19.5322 9.69434 19.5439 9.70605C19.5557 9.71777 19.5625 9.73342 19.5625 9.75C19.5625 9.76658 19.5557 9.78223 19.5439 9.79395C19.5322 9.80566 19.5166 9.8125 19.5 9.8125H16.5C16.4834 9.8125 16.4678 9.80567 16.4561 9.79395C16.4443 9.78222 16.4375 9.76658 16.4375 9.75C16.4375 9.73342 16.4443 9.71778 16.4561 9.70605C16.4678 9.69433 16.4834 9.6875 16.5 9.6875ZM16.5 6.6875H19.5C19.5166 6.6875 19.5322 6.69434 19.5439 6.70605C19.5557 6.71778 19.5625 6.73342 19.5625 6.75C19.5625 6.76658 19.5557 6.78222 19.5439 6.79395C19.5322 6.80566 19.5166 6.8125 19.5 6.8125H16.5C16.4834 6.8125 16.4678 6.80567 16.4561 6.79395C16.4443 6.78222 16.4375 6.76658 16.4375 6.75C16.4375 6.73342 16.4443 6.71778 16.4561 6.70605C16.4678 6.69433 16.4834 6.6875 16.5 6.6875Z" fill="white" stroke="#E5005C"/>
</svg>
