<svg width="24" height="24" viewBox="0 0 24 24" fill="none" xmlns="http://www.w3.org/2000/svg">
<path d="M20.9998 2.9375C21.0163 2.9375 21.032 2.9444 21.0437 2.95605C21.0555 2.96778 21.0623 2.98342 21.0623 3C21.0623 4.77022 20.0861 6.84032 18.0096 9.16406C16.5244 10.8256 14.786 12.2705 13.4793 13.2607L13.1941 13.4775L13.3064 13.8174C13.553 14.559 13.6208 15.3485 13.5027 16.1211C13.3845 16.8939 13.0839 17.6285 12.6267 18.2627C12.1696 18.8967 11.5685 19.4132 10.8728 19.7695C10.1771 20.126 9.40652 20.312 8.62479 20.3125H1.49686C1.4836 20.3125 1.47046 20.3086 1.45975 20.3008C1.44901 20.2929 1.44125 20.2813 1.43729 20.2686C1.43337 20.2557 1.43372 20.2412 1.43826 20.2285C1.44284 20.216 1.45158 20.2056 1.46268 20.1982C1.61719 20.0957 3.68729 18.6197 3.68729 15.375L3.69608 15.083C3.73689 14.4022 3.91833 13.7358 4.23026 13.127C4.5867 12.4312 5.10392 11.8302 5.73807 11.373C6.3722 10.916 7.106 10.6162 7.87869 10.498C8.65128 10.3799 9.44074 10.4468 10.1824 10.6934L10.5222 10.8057L10.739 10.5215C11.7326 9.21228 13.1752 7.47332 14.8367 5.98828L14.8357 5.9873C17.1593 3.91291 19.2297 2.93758 20.9998 2.9375ZM9.56424 10.6553C8.63071 10.4696 7.66236 10.5645 6.78299 10.9287C5.90381 11.2929 5.15256 11.9099 4.62381 12.7012C4.09501 13.4926 3.81229 14.4232 3.81229 15.375C3.81229 17.2829 3.10746 18.5889 2.48221 19.376L1.83768 20.1875H8.62479C9.57661 20.1875 10.5072 19.9048 11.2986 19.376C12.0899 18.8472 12.7068 18.096 13.0711 17.2168C13.4353 16.3376 13.5311 15.3699 13.3455 14.4365C13.1598 13.503 12.7011 12.6447 12.0281 11.9717C11.3552 11.2988 10.4976 10.841 9.56424 10.6553ZM12.2 8.90137C11.7419 9.44099 11.336 9.9469 10.9939 10.3906L10.6492 10.8379L11.1346 11.126C11.8508 11.5509 12.4488 12.149 12.8738 12.8652L13.1619 13.3496L13.6082 13.0068C14.0544 12.6643 14.5612 12.2582 15.0994 11.7998L15.4324 11.5156L15.1951 11.1484C14.5902 10.2091 13.7916 9.40962 12.8523 8.80469L12.4832 8.56738L12.2 8.90137ZM20.3299 3.1084C18.9669 3.29108 17.6101 4.00119 16.3689 4.90625C15.1216 5.81581 13.9524 6.9509 12.9627 8.03613L12.5721 8.46387L13.0535 8.78809C13.9057 9.36171 14.6391 10.095 15.2127 10.9473L15.5359 11.4268L15.9637 11.0381C17.0492 10.0504 18.1839 8.88076 19.0935 7.63281C19.9987 6.39098 20.7087 5.03284 20.8914 3.66992L20.9793 3.02148L20.3299 3.1084Z" fill="white" stroke="#E5005C"/>
</svg>
