<svg width="24" height="24" viewBox="0 0 24 24" fill="none" xmlns="http://www.w3.org/2000/svg">
<path d="M22.0002 10.5H16.0002M13.7502 6.375C13.7502 6.81821 13.6629 7.25708 13.4933 7.66656C13.3237 8.07603 13.0751 8.44809 12.7617 8.76149C12.4483 9.07488 12.0763 9.32348 11.6668 9.49309C11.2573 9.6627 10.8185 9.75 10.3752 9.75C9.93203 9.75 9.49316 9.6627 9.08369 9.49309C8.67421 9.32348 8.30216 9.07488 7.98876 8.76149C7.67536 8.44809 7.42676 8.07603 7.25715 7.66656C7.08754 7.25708 7.00024 6.81821 7.00024 6.375C7.00024 5.47989 7.35582 4.62145 7.98876 3.98851C8.62169 3.35558 9.48014 3 10.3752 3C11.2703 3 12.1288 3.35558 12.7617 3.98851C13.3947 4.62145 13.7502 5.47989 13.7502 6.375ZM4.00024 19.235V19.125C4.00024 17.4342 4.67189 15.8127 5.86744 14.6172C7.06298 13.4216 8.68449 12.75 10.3752 12.75C12.066 12.75 13.6875 13.4216 14.883 14.6172C16.0786 15.8127 16.7502 17.4342 16.7502 19.125V19.234C14.8257 20.3931 12.6209 21.0038 10.3742 21C8.04324 21 5.86224 20.355 4.00024 19.234V19.235Z" stroke="#E5005C" stroke-linecap="round" stroke-linejoin="round"/>
</svg>
