<svg width="25" height="24" viewBox="0 0 25 24" fill="none" xmlns="http://www.w3.org/2000/svg">
<path d="M2.58325 21H22.0833M4.08325 3V21M14.5833 3V21M20.5833 7.5V21M7.08325 6.75H7.83325M7.08325 9.75H7.83325M7.08325 12.75H7.83325M10.8333 6.75H11.5833M10.8333 9.75H11.5833M10.8333 12.75H11.5833M7.08325 21V17.625C7.08325 17.004 7.58725 16.5 8.20825 16.5H10.4583C11.0793 16.5 11.5833 17.004 11.5833 17.625V21M3.33325 3H15.3333M14.5833 7.5H21.3333M17.5833 11.25H17.5913V11.258H17.5833V11.25ZM17.5833 14.25H17.5913V14.258H17.5833V14.25ZM17.5833 17.25H17.5913V17.258H17.5833V17.25Z" stroke="#E5005C" stroke-linecap="round" stroke-linejoin="round"/>
</svg>
