<svg width="24" height="24" viewBox="0 0 24 24" fill="none" xmlns="http://www.w3.org/2000/svg">
<path d="M13.5 7.125V8.25C13.5 8.84674 13.7371 9.41903 14.159 9.84099C14.581 10.2629 15.1533 10.5 15.75 10.5H18C18.5967 10.5 19.169 10.2629 19.591 9.84099C20.0129 9.41903 20.25 8.84674 20.25 8.25V6C20.25 5.40326 20.0129 4.83097 19.591 4.40901C19.169 3.98705 18.5967 3.75 18 3.75H15.75C15.1533 3.75 14.581 3.98705 14.159 4.40901C13.7371 4.83097 13.5 5.40326 13.5 6V7.125ZM13.5 7.125H10.5M10.5 7.125V6C10.5 5.40326 10.2629 4.83097 9.84099 4.40901C9.41903 3.98705 8.84674 3.75 8.25 3.75H6C5.40326 3.75 4.83097 3.98705 4.40901 4.40901C3.98705 4.83097 3.75 5.40326 3.75 6V8.25C3.75 8.84674 3.98705 9.41903 4.40901 9.84099C4.83097 10.2629 5.40326 10.5 6 10.5H7.125M10.5 7.125V8.25C10.5 8.84674 10.2629 9.41903 9.84099 9.84099C9.41903 10.2629 8.84674 10.5 8.25 10.5H7.125M7.125 10.5V13.5M7.125 13.5H6C5.40326 13.5 4.83097 13.7371 4.40901 14.159C3.98705 14.581 3.75 15.1533 3.75 15.75V18C3.75 18.5967 3.98705 19.169 4.40901 19.591C4.83097 20.0129 5.40326 20.25 6 20.25H8.25C8.84674 20.25 9.41903 20.0129 9.84099 19.591C10.2629 19.169 10.5 18.5967 10.5 18V16.875M7.125 13.5H8.25C8.84674 13.5 9.41903 13.7371 9.84099 14.159C10.2629 14.581 10.5 15.1533 10.5 15.75V16.875M10.5 16.875H13.5M13.5 16.875V18C13.5 18.5967 13.7371 19.169 14.159 19.591C14.581 20.0129 15.1533 20.25 15.75 20.25H18C18.5967 20.25 19.169 20.0129 19.591 19.591C20.0129 19.169 20.25 18.5967 20.25 18V15.75C20.25 15.1533 20.0129 14.581 19.591 14.159C19.169 13.7371 18.5967 13.5 18 13.5H15.75C15.1533 13.5 14.581 13.7371 14.159 14.159C13.7371 14.581 13.5 15.1533 13.5 15.75V16.875Z" stroke="#E5005C" stroke-linecap="round" stroke-linejoin="round"/>
</svg>
