<svg width="24" height="24" viewBox="0 0 24 24" fill="none" xmlns="http://www.w3.org/2000/svg">
<mask id="path-1-inside-1_147_518" fill="white">
<path d="M20.5509 15.0226C20.4707 14.9719 20.379 14.9422 20.2842 14.9365C20.1895 14.9308 20.0948 14.9491 20.0091 14.9898C19.7354 15.1191 19.4366 15.1865 19.134 15.1874C18.8313 15.1883 18.5322 15.1225 18.2578 14.9948C17.9834 14.8671 17.7405 14.6806 17.5463 14.4484C17.3521 14.2163 17.2113 13.9443 17.134 13.6517C17.0567 13.3591 17.0448 13.053 17.099 12.7553C17.1532 12.4575 17.2723 12.1753 17.4479 11.9288C17.6234 11.6822 17.851 11.4773 18.1146 11.3286C18.3782 11.1799 18.6713 11.091 18.9731 11.0682C19.3293 11.0425 19.6861 11.109 20.0091 11.2614C20.0948 11.302 20.1894 11.3203 20.2841 11.3145C20.3788 11.3088 20.4705 11.2792 20.5507 11.2285C20.6308 11.1778 20.6969 11.1076 20.7427 11.0245C20.7884 10.9414 20.8125 10.8481 20.8125 10.7532V6.75011C20.8125 6.40201 20.6742 6.06817 20.4281 5.82203C20.1819 5.57589 19.8481 5.43761 19.5 5.43761H15.8887C15.9211 5.25186 15.9374 5.06366 15.9375 4.87511C15.9368 4.43979 15.8473 4.0092 15.6743 3.60973C15.5013 3.21026 15.2486 2.85032 14.9316 2.55198C14.6149 2.25169 14.2393 2.0204 13.8286 1.87275C13.4179 1.72509 12.981 1.66428 12.5456 1.69417C12.0976 1.72304 11.6608 1.84622 11.2637 2.05564C10.8666 2.26506 10.5182 2.556 10.2413 2.90941C9.96449 3.26281 9.76542 3.67071 9.65716 4.1064C9.5489 4.54208 9.53389 4.99572 9.61312 5.43761H5.99999C5.65189 5.43761 5.31806 5.57589 5.07191 5.82203C4.82577 6.06817 4.68749 6.40201 4.68749 6.75011V9.9873C4.16477 9.89362 3.62693 9.93202 3.12283 10.099C2.61873 10.266 2.16433 10.5563 1.80093 10.9435C1.38885 11.3825 1.10953 11.9292 0.995287 12.5203C0.881045 13.1115 0.936559 13.7229 1.1554 14.2838C1.37425 14.8446 1.74747 15.3321 2.23187 15.6897C2.71626 16.0472 3.29202 16.2603 3.89249 16.3042C4.15818 16.3234 4.42522 16.3095 4.68749 16.2629V19.5001C4.68749 19.8482 4.82577 20.182 5.07191 20.4282C5.31806 20.6743 5.65189 20.8126 5.99999 20.8126H19.5C19.8481 20.8126 20.1819 20.6743 20.4281 20.4282C20.6742 20.182 20.8125 19.8482 20.8125 19.5001V15.4979C20.8125 15.4031 20.7885 15.3097 20.7428 15.2266C20.6971 15.1435 20.6311 15.0734 20.5509 15.0226ZM19.6875 19.5001C19.6875 19.5498 19.6677 19.5975 19.6326 19.6327C19.5974 19.6679 19.5497 19.6876 19.5 19.6876H5.99999C5.95026 19.6876 5.90257 19.6679 5.86741 19.6327C5.83225 19.5975 5.81249 19.5498 5.81249 19.5001V15.4979C5.81249 15.3487 5.75323 15.2057 5.64774 15.1002C5.54225 14.9947 5.39918 14.9354 5.24999 14.9354C5.16661 14.9352 5.08426 14.9538 5.00905 14.9898C4.70486 15.134 4.36998 15.2016 4.03366 15.1866C3.69733 15.1717 3.36978 15.0746 3.07961 14.9039C2.78944 14.7332 2.54546 14.4941 2.36898 14.2074C2.1925 13.9207 2.08889 13.5951 2.06718 13.2592C2.04379 12.9006 2.11448 12.5422 2.27224 12.2194C2.42999 11.8965 2.66935 11.6205 2.9666 11.4187C3.26384 11.2168 3.60867 11.0961 3.96691 11.0685C4.32516 11.0409 4.6844 11.1074 5.00905 11.2614C5.09478 11.302 5.18939 11.3203 5.28408 11.3145C5.37877 11.3088 5.47048 11.2792 5.55065 11.2285C5.63083 11.1778 5.69688 11.1076 5.74266 11.0245C5.78844 10.9414 5.81246 10.8481 5.81249 10.7532V6.75011C5.81249 6.70038 5.83225 6.65269 5.86741 6.61753C5.90257 6.58236 5.95026 6.56261 5.99999 6.56261H10.3772C10.472 6.56258 10.5654 6.53856 10.6485 6.49278C10.7315 6.447 10.8017 6.38095 10.8524 6.30077C10.9031 6.22059 10.9327 6.12889 10.9385 6.0342C10.9442 5.93951 10.9259 5.8449 10.8853 5.75917C10.736 5.43698 10.6715 5.08203 10.6978 4.72792C10.7198 4.42579 10.808 4.1322 10.9562 3.86802C11.1045 3.60384 11.3091 3.37556 11.5555 3.19941C11.802 3.02325 12.0842 2.90355 12.3822 2.84881C12.6801 2.79406 12.9865 2.80562 13.2794 2.88267C13.5724 2.95971 13.8448 3.10034 14.0773 3.29457C14.3097 3.48879 14.4966 3.73184 14.6245 4.00644C14.7524 4.28104 14.8183 4.58045 14.8174 4.88338C14.8165 5.18631 14.7489 5.48532 14.6194 5.75917C14.5789 5.84447 14.5606 5.93857 14.5661 6.0328C14.5716 6.12704 14.6007 6.21838 14.6507 6.29841C14.7008 6.37844 14.7702 6.44459 14.8525 6.49076C14.9348 6.53693 15.0275 6.56164 15.1219 6.56261H19.5C19.5497 6.56261 19.5974 6.58236 19.6326 6.61753C19.6677 6.65269 19.6875 6.70038 19.6875 6.75011V9.98823C19.2456 9.90901 18.792 9.92401 18.3563 10.0323C17.9206 10.1405 17.5127 10.3396 17.1593 10.6165C16.8059 10.8933 16.5149 11.2417 16.3055 11.6388C16.0961 12.0359 15.9729 12.4727 15.9441 12.9207C15.9144 13.356 15.9753 13.7928 16.1228 14.2034C16.2702 14.614 16.5011 14.9897 16.8009 15.3067C17.165 15.693 17.6194 15.9828 18.1233 16.1499C18.6272 16.317 19.1647 16.3561 19.6875 16.2639V19.5001Z"/>
</mask>
<path d="M20.5509 15.0226C20.4707 14.9719 20.379 14.9422 20.2842 14.9365C20.1895 14.9308 20.0948 14.9491 20.0091 14.9898C19.7354 15.1191 19.4366 15.1865 19.134 15.1874C18.8313 15.1883 18.5322 15.1225 18.2578 14.9948C17.9834 14.8671 17.7405 14.6806 17.5463 14.4484C17.3521 14.2163 17.2113 13.9443 17.134 13.6517C17.0567 13.3591 17.0448 13.053 17.099 12.7553C17.1532 12.4575 17.2723 12.1753 17.4479 11.9288C17.6234 11.6822 17.851 11.4773 18.1146 11.3286C18.3782 11.1799 18.6713 11.091 18.9731 11.0682C19.3293 11.0425 19.6861 11.109 20.0091 11.2614C20.0948 11.302 20.1894 11.3203 20.2841 11.3145C20.3788 11.3088 20.4705 11.2792 20.5507 11.2285C20.6308 11.1778 20.6969 11.1076 20.7427 11.0245C20.7884 10.9414 20.8125 10.8481 20.8125 10.7532V6.75011C20.8125 6.40201 20.6742 6.06817 20.4281 5.82203C20.1819 5.57589 19.8481 5.43761 19.5 5.43761H15.8887C15.9211 5.25186 15.9374 5.06366 15.9375 4.87511C15.9368 4.43979 15.8473 4.0092 15.6743 3.60973C15.5013 3.21026 15.2486 2.85032 14.9316 2.55198C14.6149 2.25169 14.2393 2.0204 13.8286 1.87275C13.4179 1.72509 12.981 1.66428 12.5456 1.69417C12.0976 1.72304 11.6608 1.84622 11.2637 2.05564C10.8666 2.26506 10.5182 2.556 10.2413 2.90941C9.96449 3.26281 9.76542 3.67071 9.65716 4.1064C9.5489 4.54208 9.53389 4.99572 9.61312 5.43761H5.99999C5.65189 5.43761 5.31806 5.57589 5.07191 5.82203C4.82577 6.06817 4.68749 6.40201 4.68749 6.75011V9.9873C4.16477 9.89362 3.62693 9.93202 3.12283 10.099C2.61873 10.266 2.16433 10.5563 1.80093 10.9435C1.38885 11.3825 1.10953 11.9292 0.995287 12.5203C0.881045 13.1115 0.936559 13.7229 1.1554 14.2838C1.37425 14.8446 1.74747 15.3321 2.23187 15.6897C2.71626 16.0472 3.29202 16.2603 3.89249 16.3042C4.15818 16.3234 4.42522 16.3095 4.68749 16.2629V19.5001C4.68749 19.8482 4.82577 20.182 5.07191 20.4282C5.31806 20.6743 5.65189 20.8126 5.99999 20.8126H19.5C19.8481 20.8126 20.1819 20.6743 20.4281 20.4282C20.6742 20.182 20.8125 19.8482 20.8125 19.5001V15.4979C20.8125 15.4031 20.7885 15.3097 20.7428 15.2266C20.6971 15.1435 20.6311 15.0734 20.5509 15.0226ZM19.6875 19.5001C19.6875 19.5498 19.6677 19.5975 19.6326 19.6327C19.5974 19.6679 19.5497 19.6876 19.5 19.6876H5.99999C5.95026 19.6876 5.90257 19.6679 5.86741 19.6327C5.83225 19.5975 5.81249 19.5498 5.81249 19.5001V15.4979C5.81249 15.3487 5.75323 15.2057 5.64774 15.1002C5.54225 14.9947 5.39918 14.9354 5.24999 14.9354C5.16661 14.9352 5.08426 14.9538 5.00905 14.9898C4.70486 15.134 4.36998 15.2016 4.03366 15.1866C3.69733 15.1717 3.36978 15.0746 3.07961 14.9039C2.78944 14.7332 2.54546 14.4941 2.36898 14.2074C2.1925 13.9207 2.08889 13.5951 2.06718 13.2592C2.04379 12.9006 2.11448 12.5422 2.27224 12.2194C2.42999 11.8965 2.66935 11.6205 2.9666 11.4187C3.26384 11.2168 3.60867 11.0961 3.96691 11.0685C4.32516 11.0409 4.6844 11.1074 5.00905 11.2614C5.09478 11.302 5.18939 11.3203 5.28408 11.3145C5.37877 11.3088 5.47048 11.2792 5.55065 11.2285C5.63083 11.1778 5.69688 11.1076 5.74266 11.0245C5.78844 10.9414 5.81246 10.8481 5.81249 10.7532V6.75011C5.81249 6.70038 5.83225 6.65269 5.86741 6.61753C5.90257 6.58236 5.95026 6.56261 5.99999 6.56261H10.3772C10.472 6.56258 10.5654 6.53856 10.6485 6.49278C10.7315 6.447 10.8017 6.38095 10.8524 6.30077C10.9031 6.22059 10.9327 6.12889 10.9385 6.0342C10.9442 5.93951 10.9259 5.8449 10.8853 5.75917C10.736 5.43698 10.6715 5.08203 10.6978 4.72792C10.7198 4.42579 10.808 4.1322 10.9562 3.86802C11.1045 3.60384 11.3091 3.37556 11.5555 3.19941C11.802 3.02325 12.0842 2.90355 12.3822 2.84881C12.6801 2.79406 12.9865 2.80562 13.2794 2.88267C13.5724 2.95971 13.8448 3.10034 14.0773 3.29457C14.3097 3.48879 14.4966 3.73184 14.6245 4.00644C14.7524 4.28104 14.8183 4.58045 14.8174 4.88338C14.8165 5.18631 14.7489 5.48532 14.6194 5.75917C14.5789 5.84447 14.5606 5.93857 14.5661 6.0328C14.5716 6.12704 14.6007 6.21838 14.6507 6.29841C14.7008 6.37844 14.7702 6.44459 14.8525 6.49076C14.9348 6.53693 15.0275 6.56164 15.1219 6.56261H19.5C19.5497 6.56261 19.5974 6.58236 19.6326 6.61753C19.6677 6.65269 19.6875 6.70038 19.6875 6.75011V9.98823C19.2456 9.90901 18.792 9.92401 18.3563 10.0323C17.9206 10.1405 17.5127 10.3396 17.1593 10.6165C16.8059 10.8933 16.5149 11.2417 16.3055 11.6388C16.0961 12.0359 15.9729 12.4727 15.9441 12.9207C15.9144 13.356 15.9753 13.7928 16.1228 14.2034C16.2702 14.614 16.5011 14.9897 16.8009 15.3067C17.165 15.693 17.6194 15.9828 18.1233 16.1499C18.6272 16.317 19.1647 16.3561 19.6875 16.2639V19.5001Z" fill="white" stroke="#E5005C" stroke-width="2" mask="url(#path-1-inside-1_147_518)"/>
</svg>
