<svg width="24" height="24" viewBox="0 0 24 24" fill="none" xmlns="http://www.w3.org/2000/svg">
<path d="M11.9805 2.94043C11.9931 2.93628 12.0069 2.93628 12.0195 2.94043L21.0195 5.94043C21.0319 5.94457 21.0431 5.95232 21.0508 5.96289C21.0584 5.97353 21.0625 5.9869 21.0625 6C21.0625 6.01291 21.0583 6.0256 21.0508 6.03613C21.0433 6.04646 21.0325 6.05434 21.0205 6.05859L16.6484 7.51172L16.0225 7.71973L16.3926 8.2666C16.8106 8.88388 17.0942 9.5824 17.2246 10.3164C17.355 11.0506 17.3294 11.8047 17.1494 12.5283C16.9694 13.2518 16.6387 13.9291 16.1797 14.5166C15.7206 15.1041 15.143 15.5889 14.4844 15.9385L13.4629 16.4805L14.5576 16.8535C16.2441 17.4277 17.7167 18.5695 18.7822 20.1895C18.7868 20.2014 18.7883 20.2141 18.7852 20.2266C18.7813 20.2418 18.7719 20.2551 18.7588 20.2637C18.7458 20.2721 18.7301 20.2759 18.7148 20.2734C18.7006 20.2711 18.6882 20.2627 18.6787 20.252C17.1398 17.9168 14.7077 16.5625 12 16.5625C9.29298 16.5625 6.86126 17.916 5.32227 20.25C5.31321 20.2586 5.30251 20.2655 5.29004 20.2676C5.27481 20.27 5.25904 20.2662 5.24609 20.2578C5.23321 20.2494 5.22371 20.2365 5.21973 20.2217C5.21671 20.2101 5.21709 20.1978 5.2207 20.1865C6.28581 18.5668 7.75902 17.4273 9.44141 16.8564L10.54 16.4834L9.51562 15.9404C8.85664 15.5912 8.27792 15.1079 7.81836 14.5205C7.35889 13.9332 7.02808 13.2557 6.84766 12.5322C6.66726 11.8086 6.64145 11.0546 6.77148 10.3203C6.90153 9.58603 7.18466 8.88715 7.60254 8.26953L7.97266 7.72363L7.34668 7.51465L3.7207 6.30566L3.0625 6.08594V13.5C3.06247 13.5165 3.05564 13.5323 3.04395 13.5439C3.03223 13.5556 3.01655 13.5625 3 13.5625C2.98345 13.5625 2.96777 13.5556 2.95605 13.5439C2.94436 13.5323 2.93753 13.5165 2.9375 13.5V6L2.94922 5.96387C2.95688 5.95323 2.96803 5.94458 2.98047 5.94043L11.9805 2.94043ZM15.5332 7.8877L12.0195 9.05859C12.0067 9.06284 11.9933 9.06284 11.9805 9.05859L8.4668 7.8877L8.13281 7.77637L7.91504 8.05371C7.40548 8.70458 7.05914 9.4683 6.9043 10.2803C6.74949 11.0921 6.79122 11.9291 7.02539 12.7217C7.25966 13.5144 7.67964 14.2405 8.25098 14.8379C8.82224 15.4351 9.52822 15.8869 10.3096 16.1562C11.0911 16.4256 11.9261 16.5043 12.7441 16.3857C13.5621 16.2672 14.3399 15.9546 15.0127 15.4746C15.6855 14.9946 16.234 14.3609 16.6123 13.626C16.9905 12.8911 17.1878 12.0765 17.1875 11.25L17.1836 11.0332C17.1393 9.9511 16.7552 8.90833 16.084 8.05371L15.8672 7.77637L15.5332 7.8877ZM11.8418 3.11816L4.62305 5.52539L3.20117 6L4.62305 6.47461L11.8418 8.88184L12 8.93457L12.1582 8.88184L19.377 6.47461L20.7988 6L19.377 5.52539L12.1582 3.11816L12 3.06543L11.8418 3.11816Z" fill="white" stroke="#E5005C"/>
</svg>
