<svg width="24" height="24" viewBox="0 0 24 24" fill="none" xmlns="http://www.w3.org/2000/svg">
<path d="M3.75 4.4375H20.25C20.4655 4.4375 20.6718 4.52341 20.8242 4.67578C20.9766 4.82815 21.0625 5.03451 21.0625 5.25V18.75C21.0625 18.9655 20.9766 19.1718 20.8242 19.3242C20.6718 19.4766 20.4655 19.5625 20.25 19.5625H3.75C3.53451 19.5625 3.32815 19.4766 3.17578 19.3242C3.02341 19.1718 2.9375 18.9655 2.9375 18.75V5.25C2.9375 5.03451 3.02341 4.82815 3.17578 4.67578C3.32815 4.52341 3.53451 4.4375 3.75 4.4375ZM3.75 4.5625C3.56767 4.5625 3.3926 4.63474 3.26367 4.76367C3.13474 4.8926 3.0625 5.06767 3.0625 5.25V18.75C3.0625 18.9323 3.13474 19.1074 3.26367 19.2363C3.3926 19.3653 3.56766 19.4375 3.75 19.4375H20.25C20.4323 19.4375 20.6074 19.3653 20.7363 19.2363C20.8653 19.1074 20.9375 18.9323 20.9375 18.75V5.25C20.9375 5.11318 20.8971 4.98032 20.8223 4.86816L20.7363 4.76367L20.6318 4.67773C20.5197 4.6029 20.3868 4.5625 20.25 4.5625H3.75ZM12.75 14.9375H16.5C16.5166 14.9375 16.5322 14.9443 16.5439 14.9561C16.5557 14.9678 16.5625 14.9834 16.5625 15C16.5625 15.0166 16.5557 15.0322 16.5439 15.0439C16.5322 15.0557 16.5166 15.0625 16.5 15.0625H12.75C12.7334 15.0625 12.7178 15.0557 12.7061 15.0439C12.6943 15.0322 12.6875 15.0166 12.6875 15C12.6875 14.9834 12.6943 14.9678 12.7061 14.9561C12.7178 14.9443 12.7334 14.9375 12.75 14.9375ZM7.49316 8.9375C7.50134 8.93661 7.50968 8.93717 7.51758 8.93945C7.5255 8.94175 7.53262 8.94602 7.53906 8.95117L11.2891 11.9502C11.2964 11.9561 11.3026 11.9642 11.3066 11.9727L11.3125 11.999V12.001C11.3124 12.0101 11.3105 12.0191 11.3066 12.0273C11.3026 12.0357 11.2963 12.043 11.2891 12.0488L7.53906 15.0488C7.52605 15.0592 7.50972 15.0643 7.49316 15.0625C7.47658 15.0607 7.4616 15.0521 7.45117 15.0391C7.44077 15.0261 7.43569 15.0097 7.4375 14.9932C7.43935 14.9766 7.44791 14.9616 7.46094 14.9512L10.6621 12.3906L11.1504 12L10.6621 11.6094L7.46094 9.04883C7.45452 9.04369 7.44929 9.03747 7.44531 9.03027C7.44132 9.02303 7.43842 9.01505 7.4375 9.00684C7.43661 8.99866 7.43717 8.99032 7.43945 8.98242C7.44175 8.9745 7.44602 8.96738 7.45117 8.96094C7.45631 8.95452 7.46253 8.94929 7.46973 8.94531C7.47697 8.94132 7.48495 8.93842 7.49316 8.9375Z" fill="white" stroke="#E5005C"/>
</svg>
