<svg width="25" height="24" viewBox="0 0 25 24" fill="none" xmlns="http://www.w3.org/2000/svg">
<path d="M17.7256 15.521C18.1934 15.2015 18.7421 15.0211 19.3082 15.0004C19.8743 14.9798 20.4346 15.1199 20.9244 15.4044C21.4142 15.689 21.8135 16.1064 22.0759 16.6084C22.3384 17.1104 22.4534 17.6764 22.4076 18.241C21.2078 18.6603 19.9334 18.8235 18.6666 18.72C18.6627 17.5866 18.3363 16.4768 17.7256 15.522C17.1835 14.6718 16.4357 13.972 15.5514 13.4875C14.6672 13.003 13.6749 12.7493 12.6666 12.75C11.6584 12.7495 10.6664 13.0032 9.78234 13.4877C8.89824 13.9723 8.15061 14.6719 7.60861 15.522M18.6656 18.719L18.6666 18.75C18.6666 18.975 18.6546 19.197 18.6296 19.416C16.815 20.4571 14.7587 21.0033 12.6666 21C10.4966 21 8.45961 20.424 6.70361 19.416C6.6779 19.1846 6.66555 18.9519 6.66661 18.719M6.66661 18.719C5.40024 18.8263 4.12652 18.6637 2.92761 18.242C2.88196 17.6776 2.99701 17.1117 3.25944 16.6099C3.52187 16.1081 3.92098 15.6908 4.41061 15.4063C4.90025 15.1218 5.46041 14.9817 6.02633 15.0021C6.59225 15.0226 7.14082 15.2028 7.60861 15.522M6.66661 18.719C6.6702 17.5857 6.99823 16.4769 7.60861 15.522M15.6666 6.75C15.6666 7.54565 15.3505 8.30871 14.7879 8.87132C14.2253 9.43393 13.4623 9.75 12.6666 9.75C11.871 9.75 11.1079 9.43393 10.5453 8.87132C9.98268 8.30871 9.66661 7.54565 9.66661 6.75C9.66661 5.95435 9.98268 5.19129 10.5453 4.62868C11.1079 4.06607 11.871 3.75 12.6666 3.75C13.4623 3.75 14.2253 4.06607 14.7879 4.62868C15.3505 5.19129 15.6666 5.95435 15.6666 6.75ZM21.6666 9.75C21.6666 10.0455 21.6084 10.3381 21.4953 10.611C21.3823 10.884 21.2165 11.1321 21.0076 11.341C20.7987 11.5499 20.5506 11.7157 20.2776 11.8287C20.0047 11.9418 19.7121 12 19.4166 12C19.1211 12 18.8286 11.9418 18.5556 11.8287C18.2826 11.7157 18.0346 11.5499 17.8256 11.341C17.6167 11.1321 17.451 10.884 17.3379 10.611C17.2248 10.3381 17.1666 10.0455 17.1666 9.75C17.1666 9.15326 17.4037 8.58097 17.8256 8.15901C18.2476 7.73705 18.8199 7.5 19.4166 7.5C20.0133 7.5 20.5856 7.73705 21.0076 8.15901C21.4296 8.58097 21.6666 9.15326 21.6666 9.75ZM8.16661 9.75C8.16661 10.0455 8.10841 10.3381 7.99534 10.611C7.88227 10.884 7.71653 11.1321 7.5076 11.341C7.29867 11.5499 7.05063 11.7157 6.77765 11.8287C6.50467 11.9418 6.21209 12 5.91661 12C5.62114 12 5.32856 11.9418 5.05557 11.8287C4.78259 11.7157 4.53455 11.5499 4.32562 11.341C4.11669 11.1321 3.95096 10.884 3.83788 10.611C3.72481 10.3381 3.66661 10.0455 3.66661 9.75C3.66661 9.15326 3.90366 8.58097 4.32562 8.15901C4.74758 7.73705 5.31987 7.5 5.91661 7.5C6.51335 7.5 7.08564 7.73705 7.5076 8.15901C7.92956 8.58097 8.16661 9.15326 8.16661 9.75Z" stroke="#E5005C" stroke-linecap="round" stroke-linejoin="round"/>
</svg>
